<svg version="1.2" xmlns="http://www.w3.org/2000/svg" viewBox="0 0 908 952" width="908" height="952">
	<title>Caricatura (1)</title>
	<style>
		.s0 { opacity: 1;fill: #0e0b2b } 
		.s1 { fill: #0e0926 } 
		.s2 { fill: #110a2b } 
		.s3 { opacity: 1;fill: #ea8196 } 
		.s4 { opacity: 1;fill: #491155 } 
		.s5 { fill: #83637d } 
		.s6 { fill: #e4d7ea } 
		.s7 { fill: #087895 } 
		.s8 { fill: #8a50dc } 
	</style>
	<g id="Background">
		<path id="Path 0" class="s0" d="m0 398.5v398.5c7.4-0.8 10.4-1.3 11.5-1.5 1.1-0.2 3.8-0.9 6-1.5 2.2-0.6 10.6-1 18.8-1 8.1 0 14.7-0.2 14.7-0.5 0-0.3-1.5-0.9-3.3-1.4-3.2-0.9-3.1-0.9 1.3-1 2.5 0 7.2 0.6 10.5 1.4 4.1 1 6.2 1.1 6.5 0.4 0.3-0.7 2.3-0.9 5.3-0.5 2.6 0.3 4.9 1.1 5.2 1.6 0.3 0.5 3.1 2.1 6.3 3.6 3.1 1.4 6.9 3.7 8.4 5.2 1.6 1.5 3.5 4.3 4.3 6.2 0.8 1.9 1.9 6.1 2.5 9.3 0.6 3.4 1.9 6.8 3.4 8.4l2.4 2.8c5.2-6 9.9-11.2 13.9-15.4 3.9-4.2 8.7-8.3 10.5-9.2 1.8-0.9 6-2.9 9.3-4.4 3.3-1.5 10.7-4.3 16.5-6.1 5.8-1.9 12.5-3.4 15-3.4 2.5 0 12.4 0.9 22 1.9 12.5 1.4 19.7 2.7 25 4.5 5.8 2.1 8.6 3.8 12.5 7.6 2.7 2.7 5.8 5 6.7 5 1 0 2.4-0.9 3-2 0.7-1.1 1.6-2 2-2 0.5 0 2.8-1.9 5.4-4.3 2.5-2.3 5.4-4.5 6.5-5 1-0.4 1.9-0.5 1.9-0.2 0 0.3-0.8 1.7-1.8 3.2l-1.7 2.6c6.2-4.1 10.5-7.7 13.6-10.6 3.1-2.8 7.2-6.7 9.2-8.5 3.5-3 4.3-3.2 13.4-3.8 5.4-0.4 15.7-0.3 22.8 0.1 11.6 0.7 12.7 0.9 10 2-1.6 0.7-2.5 1.4-1.8 1.6 0.6 0.2 4.2 3.3 8.1 6.9 3.8 3.6 8.5 8 10.6 9.7 2 1.8 4.4 3.5 5.3 3.7 1.3 0.2 2.2 2.1 3.2 6.7 0.7 3.5 1.5 10.2 1.8 14.9 0.3 5.6-0.1 10.8-1.1 15.2-1.1 4.8-1.3 7.4-0.6 8.8 0.6 1.1 0.9 2.1 0.7 2.3-0.1 0.2-2.3 1.7-4.9 3.3-3.7 2.2-5.3 4.1-6.9 7.9-1.2 2.7-2.7 7.9-3.4 11.5-0.7 3.6-1.5 7.3-1.9 8.2-0.3 1-0.9 1.8-1.4 1.8-0.4 0-1.5-0.8-2.4-1.8-1.6-1.6-1.8-1.5-2.7 2.3-0.6 2.2-2.2 6.5-3.6 9.5-1.4 3-3.3 6.4-4.3 7.6-0.9 1.1-3.3 3.1-5.2 4.4-1.9 1.3-4.4 2.4-5.5 2.5-1.1 0-1.9 0.6-1.8 1.3 0.2 0.9-2.6 1.2-10.7 1.2-8.9 0-11.1-0.3-11.5-1.5-0.3-0.8-3-2.9-6-4.5-4.8-2.6-5.6-3.5-6.6-7.3-1.1-3.9-1.2-4.1-2.3-2l-1.1 2.1c-7.5-4.3-9.8-4.9-11.5-4.5-1.6 0.3-4.4 3.1-7.6 7.4-2.8 3.7-8.4 9.6-12.5 13-4.1 3.4-9 8.3-10.9 10.9-1.9 2.6-4.8 5.3-6.5 6-2.4 1-4.2 1-9-0.2-3.3-0.7-7.6-1.4-9.5-1.4-1.9 0-5.5-0.8-8-1.9-2.5-1.1-6.5-2.2-9-2.5-2.5-0.3-7.5-0.8-11.3-1.1-3.7-0.3-7.9-1.1-9.5-1.8-1.5-0.8-5.6-2-9.2-2.7-3.6-0.7-7.8-2-9.5-2.8-1.7-0.9-5.1-3.6-7.8-6.1-2.7-2.6-5-5.8-5.2-7.4-0.4-2.3-1.2-2.8-5.3-3.7-2.6-0.6-6.5-1.9-8.7-3-2.2-1.1-5.2-2-6.8-2-2 0-2.7 0.5-2.7 2 0 1.6-0.7 2-3 2h-3c0-14.3-0.4-18-1-18-0.6 0-1 3.2-1 7.5 0 6.1-0.4 7.9-2 9.7-1.3 1.5-2 3.7-2 6 0 3.1-0.4 3.9-2.3 4.3q-2.2 0.5-5 6c-1.5 3-3.2 5.7-3.7 6-0.5 0.3-1 1.4-1 2.5 0 1.2-0.8 2.2-2 2.5-1.1 0.3-2 1.2-2 2 0 1.2-1.8 1.5-10 1.5-6 0-10 0.4-10 1 0 0.6-3.6 1-8.8 1-6.7 0.1-9-0.3-10-1.5-0.8-1-0.9-2.1-0.3-3.3 0.5-0.9 2.7-2.3 5-3 2.4-0.7 4.1-1.8 4.1-2.7 0-1-1.4-1.7-3.8-2.1-2-0.4-5.1-1.5-6.7-2.5-1.6-1-3.9-2.6-5-3.6-1.1-1-4.3-3.3-7-5-2.8-1.7-6.1-4.4-7.5-6-1.4-1.5-3-4.2-3.6-5.8-0.6-1.6-1.6-2.9-2.2-2.8-0.7 0.2-1.7-1.1-2.2-2.7-0.6-1.8-1.5-2.8-2.3-2.4-0.6 0.3-1.7-0.1-2.4-0.8-0.6-0.7-1.3-4-1.5-7.3-0.3-3.3-0.5 12.1-0.6 34.3l-0.2 40.2h673v-19h-16c-0.5-5.2-1-5.5-4.3-5.8-3.2-0.2-3.7-0.5-3.7-2.7 0-1.4-0.7-3.2-1.5-4-0.8-0.8-1.7-1.5-2-1.5-0.3 0-0.5 2-0.5 4.5 0 2.5-0.8 6.1-1.8 8-1.3 2.8-2.3 3.5-4.5 3.5-1.7 0-2.7 0.5-2.7 1.5 0 0.8-0.7 1.7-1.5 2-0.8 0.3-7.4 0.5-14.5 0.5-12 0-13.3-0.2-17.5-2.5-2.7-1.5-4.5-3.2-4.5-4.3 0.1-0.9-0.7-2.7-1.7-3.9-1-1.2-4.2-3.1-7.1-4.3-2.8-1.1-10-2.7-16-3.5-5.9-0.8-13.4-1.5-16.7-1.5-3.5 0-9.4-1-14-2.4-5.8-1.8-9.3-3.6-12.8-6.5-3.2-2.8-5-5.3-5.7-7.9-0.5-2-1-10.9-1.1-19.7-0.1-14.2 0.1-16.5 1.8-20 1.1-2.2 2.5-6.1 3.2-8.8 0.6-2.6 2.5-7.7 4.2-11.5 1.7-3.7 3.9-7.9 5-9.5 1.4-2 1.6-3.2 0.9-4.5-0.5-0.9-0.7-2-0.5-2.5 0.3-0.4-0.2-2.1-1-3.7-1.3-2.7-1.3-3.3 0.1-5.8 1.6-2.5 1.5-3 0-6.2-0.9-1.9-1.6-4.7-1.6-6.3 0-2.2 1-3.4 5.5-6.2 3-1.9 5.8-3.4 6.2-3.3 0.5 0.1 2.3-0.1 4-0.5 3.1-0.7 3.3-1 3.3-5 0.1-3.3 0.6-4.6 2.5-6 2.1-1.4 2.5-1.5 2.5-0.2 0 0.8-0.7 2.2-1.5 3-0.8 0.8-1.5 2.9-1.5 4.5 0 1.6 0.3 2.9 0.7 2.7 0.5-0.2 3.4-1.6 6.5-3 3.2-1.5 6-3 6.3-3.5 0.2-0.4-0.4-1.7-1.5-3-1.1-1.2-1.9-2.4-1.8-2.6 0.2-0.2 3.7-0.8 7.8-1.5 4.1-0.7 9.3-1.4 11.5-1.8 2.2-0.3 8.5 0.1 14 0.8l10 1.2c9.5 8.7 13.4 12.2 14.9 13.4 1.6 1.5 2.6 3.3 2.6 5 0 1.6 0.5 4.4 1.1 6.3 0.7 1.9 1.5 3.7 1.8 4 0.3 0.3 1.6 2.7 2.7 5.5 1.1 2.7 2.6 4.9 3.2 4.7 0.7-0.1 1.2 0.4 1.2 1 0 0.7 1.1 3.5 2.3 6.3 1.3 2.7 3.1 5.8 4 6.7 0.9 1 2.2 1.8 2.7 1.8 0.5 0 1.3-1.7 1.6-3.8 0.4-2 1.5-5.8 2.5-8.5 1.1-2.6 1.9-5.8 1.9-7.2 0-1.4 1.2-3.8 2.7-5.3 1.6-1.6 3.9-5.2 5.3-8 1.4-2.9 3-5.2 3.5-5.2 0.5 0 4-3 7.8-6.7 3.7-3.8 7.1-7.4 7.5-8.1 0.4-0.6 3.4-2.1 6.7-3.1 3.3-1 6.2-1.5 6.5-1.1 0.3 0.4 8.7 0.9 18.6 1.1 18 0.4 18.2 0.4 20.3 2.9 1.1 1.4 2 3 2 3.5 0 0.5 0.7 1.7 1.6 2.5 0.8 0.8 1.8 2.6 2 4 0.3 1.4 2.5 4.4 5 6.7 2.5 2.4 5 4.1 5.5 3.8 0.5-0.3 1 0 1 0.5 0 0.5 0.5 1 1 1 0.5 0 0.8-0.3 0.6-0.8-0.2-0.4 0-1.6 0.5-2.7 0.6-1.6 0.8-1.4 0.8 1.2 0.1 1.9 1 4.2 2.1 5.3 1.3 1.3 1.8 2.6 1.3 3.7-0.4 1-0.7 3.6-0.7 5.8 0.1 2.2 1.1 6.9 2.2 10.5 1.2 3.6 3.2 8 4.4 9.9 1.3 1.9 3.7 4.2 5.3 5.2 1.6 1 3.5 1.8 4 1.8 0.5 0.1 1.8-1.4 2.8-3.1 0.9-1.8 2.4-6.9 3.2-11.3 0.8-4.4 1.8-9.3 2.2-10.9 0.5-1.6 1.6-3.4 2.6-4 1-0.7 1.7-2.3 1.7-4.1 0-1.6 0.5-4.2 1.2-5.7 0.8-1.7 3-3.5 5.8-4.7 2.5-1.1 5.6-2.2 7-2.6 1.4-0.3 3.2-1.2 4-1.8 0.8-0.7 2.4-3 3.5-5.2 1.5-3.1 2.8-4.2 5.5-4.9 2.8-0.7 5.3-0.4 12 1.7 6.4 2.1 10.7 2.7 17.5 2.8 5 0 13.5-0.4 19-0.9 5.5-0.5 15.6-2.3 22.5-4 6.9-1.7 16-3.4 20.2-3.7l7.8-0.5v-780h-908zm771 507.5c0 0.5-0.9 1.9-2 3-1.6 1.6-2.1 3.6-2.3 9.2-0.2 6.4-0.5 7.4-2.4 8.3-1.8 0.8-2 1.3-1 2.1 0.9 0.9 0.4 1.5-2.3 2.3-1.9 0.6-5 1.1-6.8 1.1-2.2 0-3.2 0.5-3.2 1.5 0 1.2-2 1.5-12 1.5-11.3 0-12 0.1-12 2 0 1.9-0.7 2-23 2h-23v13h227c0-8-0.4-9.8-1-9.5-0.5 0.3-1.3-0.2-1.8-1-0.4-0.9 0-2.2 1-3.3 1.4-1.3 1.8-3.6 1.8-10.7v-9c-8.1 1.1-13.9 3.1-18 5.2-7.1 3.6-7.8 3.8-17.5 3.8-5.5 0-11.7-0.3-13.8-0.8l-3.7-0.7c0 6.2-1 9.1-3 12.2-2.5 4-3.5 4.8-6 4.8-1.8 0-3.2-0.6-3.5-1.5-0.3-0.8-1.9-2-3.5-2.5-1.6-0.5-3-1.7-3-2.5 0-0.8-1-1.7-2.3-1.9-1.2-0.3-5.5-0.8-9.5-1.3-7-0.8-7.2-0.9-7.2-3.6v-2.7l-22.5-0.1c-5.9-6.5-7.5-8.6-7.5-8.9 0-0.3-1.1-1.1-2.5-1.8-1.9-0.9-2.5-2-2.5-4.5 0-3-0.2-3.2-3-2.7-2.2 0.4-3.3 0-4.7-1.7-1-1.2-2.1-2.2-2.6-2.3-0.4 0-0.7 0.5-0.7 1z"/>
		<path id="Path 1" class="s1" d="m584 794.9c1.4 0.5 5.6 1 9.5 1 3.9 0.1 6.8-0.1 6.5-0.4-0.3-0.3-4.5-0.8-9.5-1-5.8-0.3-8.1-0.1-6.5 0.4zm24 17.8c-1.4 1.8-5.1 6.9-8.3 11.5-3.2 4.6-11.2 15.9-17.9 25.3-6.6 9.4-13.6 19.4-15.4 22.3-1.9 2.8-3.4 5.9-3.4 6.7q0 1.5 1.7 0.9c1-0.3 7.9-0.9 15.5-1.3 7.5-0.3 13.5-0.8 13.2-1.1-0.2-0.3-0.9-4-1.6-8.2-0.7-4.3-1.1-7.8-0.8-7.8 0.3 0 1.2 0.5 2 1.2 1.2 1.1 1.2 1.1 0.3-0.2-0.5-0.8-1.3-3-1.7-4.7-0.3-1.8-0.3-4.7 0.2-6.3 0.4-1.7 1-3 1.5-3 0.4 0 0.9 0.8 1.1 1.8 0.3 1.4 0.4 1.3 0.5-0.3 0-1.1 1.2-3.4 2.5-5 1.4-1.6 4.9-7 7.7-12 2.8-5 5.4-10.8 5.8-13 0.4-2.2 0.4-5.3 0.1-6.9l-0.5-3zm-57.5-0.9c0.3 0.7 1.2 1.2 2 1.2 0.8 0 2 1 2.6 2.2 0.6 1.3 1 4.6 0.8 7.4-0.2 2.9 0 5.1 0.5 5 0.5 0 1.2 1.1 1.7 2.6 0.7 2.2 0.3 4.1-1.7 8.5-1.4 3.2-5 8.9-7.9 12.8-3 3.8-6.3 9-7.4 11.5-1.1 2.5-2.1 6.5-2.2 9-0.1 2.5-0.3 5.5-0.5 6.7-0.2 1.3-0.9 2.3-1.4 2.3-0.5 0-0.8-0.5-0.5-1 0.3-0.6 0-1-0.5-1-0.6 0-0.8 1.5-0.4 3.7 0.4 2.1 1.7 5.6 2.9 7.8 1.2 2.2 3.9 6 6 8.5 2 2.5 5.6 5.7 7.9 7.3 3.8 2.5 4.9 2.7 13.6 2.7 8.2 0 10.6-0.4 17.5-3.1 4.4-1.7 9.8-4.1 12-5.4 2.2-1.3 4.9-3.3 6-4.5l2-2.1c-41.1-0.1-54.4-0.3-56-0.5-1.6-0.3-3.7-0.8-4.5-1.1-0.8-0.4-1.8-0.6-2.2-0.5-0.5 0.1-1.1-1.3-1.4-3.1-0.3-1.8-0.3-4.3 0.1-5.7 0.4-1.4 2.7-5 5-8 2.3-3 7.7-10.6 12.1-16.9 4.3-6.2 11.9-17.1 16.9-24.2 5-7.1 10.2-14.7 11.6-16.9 1.5-2.2 2.5-4.4 2.2-4.8-0.3-0.4-8.7-0.9-18.8-1.1-13.5-0.3-18.3-0.1-18 0.7z"/>
		<path id="Path 2" fill-rule="evenodd" class="s2" d="m691.9 777c0.3 0.4 8.8 0.9 18.7 1.1 18 0.4 18.2 0.4 20.3 2.9 1.1 1.4 2 3 2 3.5 0 0.5 0.7 1.7 1.6 2.5 0.8 0.8 1.8 2.6 2 4 0.3 1.4 2.5 4.4 5 6.8 2.5 2.3 5 4 5.5 3.7 0.5-0.3 1 0 1 0.5 0 0.5 0.5 1 1 1 0.5 0 0.8-0.3 0.6-0.8-0.2-0.4 0-1.6 0.5-2.7 0.6-1.6 0.8-1.4 0.8 1.3 0.1 1.8 1 4.1 2.1 5.2 1.3 1.3 1.8 2.6 1.3 3.8-0.4 0.9-0.7 3.5-0.7 5.7 0.1 2.2 1.1 6.9 2.2 10.5 1.2 3.6 3.2 8 4.4 9.9 1.3 1.9 3.7 4.2 5.3 5.2 1.6 1 3.5 1.8 4 1.8 0.5 0.1 1.8-1.4 2.8-3.1 0.9-1.8 2.4-6.9 3.2-11.3 0.8-4.4 1.8-9.3 2.2-10.9 0.5-1.6 1.6-3.4 2.6-4 1-0.7 1.7-2.3 1.7-4.1 0-1.6 0.5-4.2 1.2-5.7 0.8-1.7 3-3.5 5.8-4.7 2.5-1.1 5.6-2.2 7-2.6 1.4-0.3 3.2-1.2 4-1.8 0.8-0.7 2.4-3 3.5-5.2 1.5-3.1 2.8-4.2 5.5-4.9 2.8-0.7 5.3-0.4 12 1.7 6.4 2.1 10.7 2.7 17.5 2.8 5 0 13.5-0.4 19-0.9 5.5-0.5 15.4-2.3 22-4 6.6-1.6 15.7-3.3 28.5-4.2v138.5l-5.2 0.7c-2.9 0.4-8.7 2.4-12.8 4.5-7.1 3.6-7.8 3.8-17.5 3.8-5.5 0-11.7-0.3-17.5-1.5v3.8c0 2.4-1 5.3-3 8.5-2.5 3.9-3.5 4.7-6 4.7-1.8 0-3.2-0.6-3.5-1.5-0.3-0.8-1.8-2-3.5-2.5-1.6-0.5-3-1.7-3-2.5 0-0.8-1-1.7-2.2-1.9-1.3-0.3-5.6-0.8-9.6-1.3-7-0.8-7.2-0.9-7.2-6.3l-22.5-0.1-3.8-4.2c-2.1-2.3-3.7-4.4-3.7-4.7 0-0.3-1.1-1.1-2.5-1.7-1.9-1-2.5-2.1-2.5-4.5 0-3.1-0.2-3.3-3-2.8-2.2 0.4-3.4-0.1-5.1-2-1.7-2-2.3-2.2-2.7-1-0.3 0.8-1.4 2.3-2.4 3.3-1.3 1.3-1.9 3.5-2 8.9-0.3 6.4-0.6 7.4-2.5 8.3-1.8 0.8-2 1.3-1 2.1 0.9 0.9 0.4 1.5-2.3 2.3-1.9 0.6-5 1.1-6.7 1.1-2.3 0-3.3 0.5-3.3 1.5 0 1.3-2 1.5-12 1.5-11.3 0-12 0.1-12 2 0 1.9-0.7 2-46 2v13h-8v-19h-16l-0.2-2.7c-0.3-2.5-0.8-2.8-4-3-3.3-0.3-3.8-0.6-3.8-2.8 0-1.4-0.7-3.2-1.5-4-0.8-0.8-1.7-1.5-2-1.5-0.3 0-0.5 2-0.5 4.5 0 2.5-0.8 6.1-1.7 8-1.4 2.8-2.4 3.5-4.5 3.5-1.8 0-2.8 0.5-2.8 1.5 0 0.8-0.7 1.7-1.5 2-0.8 0.3-7.4 0.5-14.5 0.5-12 0-13.3-0.2-17.5-2.5-2.7-1.5-4.5-3.2-4.5-4.2 0.1-1-0.7-2.8-1.7-4-1-1.2-4.2-3.1-7-4.3-2.9-1.1-10.1-2.7-16-3.5-6-0.8-13.5-1.5-16.8-1.5-3.5 0-9.4-1-14-2.4-5.8-1.8-9.3-3.6-12.7-6.5-3.3-2.8-5.1-5.3-5.8-7.8-0.5-2.1-1-11-1.1-19.8-0.1-14.2 0.1-16.5 1.8-20 1.1-2.2 2.5-6.1 3.2-8.7 0.6-2.7 2.5-7.8 4.2-11.5 1.7-3.8 3.9-8 5-9.5 1.4-2.1 1.6-3.3 0.9-4.5-0.5-1-0.7-2.1-0.5-2.5 0.3-0.5-0.2-2.2-1-3.8-1.3-2.7-1.3-3.3 0.1-5.7 1.6-2.6 1.5-3.1 0-6.3-0.9-1.9-1.6-4.7-1.6-6.2 0-2 0.9-3.4 3-4.8 1.6-1.1 3.2-2 3.5-2 0.3 0 0.2 2.4-0.2 5.4-0.6 4.1-0.5 5.7 0.7 7 0.8 0.9 2.6 1.7 4 1.6 1.4 0 4 0.6 5.8 1.5 1.7 0.8 3.5 2.5 3.8 3.8 0.3 1.2 0.4 4.3 0.2 6.9-0.1 2.5 0.1 4.6 0.6 4.5 0.5-0.1 1.2 1 1.7 2.5 0.7 2.2 0.3 4.1-1.7 8.6-1.4 3.1-5 8.8-7.9 12.7-3 3.9-6.3 9-7.4 11.5-1.1 2.5-2.1 6.5-2.2 9-0.1 2.5-0.3 5.5-0.5 6.8-0.2 1.2-0.9 2.2-1.4 2.2-0.5 0-0.8-0.5-0.5-1 0.3-0.5 0-1-0.5-1-0.6 0-0.8 1.5-0.4 3.8 0.4 2 1.7 5.5 2.9 7.7 1.2 2.2 3.9 6 6 8.5 2 2.5 5.6 5.7 7.9 7.3 3.8 2.5 4.9 2.8 13.6 2.7 8.2 0 10.6-0.4 17.5-3.1 4.4-1.7 9.6-4 11.5-5.1 1.9-1.2 4.5-3.1 8.2-6.3l-53.7-1 58.5-0.5 2-2.7c1.2-1.6 2.1-4 2-5.5 0-1.8-0.8-3.3-2.2-4.2-1.3-0.8-5.4-1.9-9.2-2.3-3.7-0.4-7-1-7.2-1.3-0.2-0.3-0.9-4-1.6-8.2-0.7-4.3-1.1-7.8-0.8-7.8 0.3 0 1.2 0.5 2 1.2 1.2 1.1 1.2 1.1 0.3-0.2-0.5-0.8-1.3-3-1.7-4.8-0.3-1.7-0.3-4.6 0.2-6.2 0.4-1.7 1-3 1.5-3 0.4 0 0.9 0.8 1.1 1.7 0.3 1.5 0.4 1.4 0.5-0.2 0-1.1 1.2-3.4 2.5-5 1.4-1.6 4.9-7 7.7-12 2.8-5 5.4-10.8 5.7-13 0.4-2.2 0.6-5.4 0.1-10l-2.1 2c-1.4 1.2-1.2 0.8 0.5-1.3 1.5-1.7 2.7-3.8 2.7-4.5 0-0.6-0.9-3.1-2-5.5-1.9-3.9-2.3-4.2-6.7-4.7-2.7-0.2-8.6-0.6-13.3-0.9-5.9-0.4-7.7-0.2-6 0.4 1.7 0.7-2.1 0.8-11.5 0.5-7.7-0.3-16.5-0.5-19.5-0.6-5.4-0.1-5.5-0.1-2.2-1.3 2.9-1 3.3-1.5 3.3-5.1 0-3.1 0.5-4.4 2.4-5.8 2.1-1.4 2.5-1.5 2.5-0.2 0 0.8-0.7 2.2-1.5 3-0.8 0.8-1.5 2.9-1.5 4.5 0 1.6 0.3 2.9 0.8 2.7 0.4-0.2 3.3-1.6 6.5-3 3.1-1.5 5.9-3 6.2-3.5 0.2-0.4-0.4-1.7-1.5-3-1.1-1.2-1.9-2.4-1.7-2.6 0.1-0.2 3.6-0.8 7.7-1.5 4.1-0.7 9.3-1.4 11.5-1.8 2.2-0.3 8.5 0.1 24 2l6.1 5.6c3.4 3.1 7.3 6.6 8.8 7.8 1.6 1.5 2.6 3.3 2.6 5 0 1.6 0.5 4.4 1.1 6.3 0.7 1.9 1.5 3.7 1.8 4 0.3 0.3 1.6 2.8 2.7 5.5 1.1 2.8 2.6 4.9 3.2 4.8 0.7-0.2 1.2 0.3 1.2 1 0 0.6 1.1 3.5 2.3 6.2 1.3 2.8 3.1 5.8 4 6.8 0.9 0.9 2.2 1.7 2.7 1.7 0.5 0 1.3-1.7 1.6-3.7 0.4-2.1 1.5-5.9 2.5-8.5 1.1-2.7 1.9-5.9 1.9-7.3 0-1.4 1.2-3.8 2.8-5.3 1.5-1.6 3.8-5.2 5.2-8 1.4-2.9 3-5.2 3.5-5.2 0.5 0 4-3 7.8-6.7 3.7-3.8 7.3-7.4 7.9-8.1 0.7-0.7 3.6-2.1 6.7-3.2 3-1 5.7-1.4 6-1zm-395.4 1.3c6.6 0 15.1 0.3 19 0.6 5.5 0.5 6.5 0.9 4.5 1.5-2.5 0.8-2.4 0.9 3.5 6.5 3.3 3.2 7.5 7.1 9.4 8.7 1.9 1.6 4.1 3.7 5 4.7 0.9 0.9 2.5 1.9 3.6 2.1 1.6 0.2 2.3 1.7 3.4 6.7 0.7 3.5 1.5 10.2 1.8 14.9 0.3 5.6-0.1 10.8-1.1 15.3-1.1 4.7-1.3 7.3-0.6 8.7 0.6 1.1 0.9 2.1 0.8 2.3-0.2 0.2-2.4 1.7-5 3.3-3.7 2.2-5.3 4.1-6.9 7.9-1.2 2.8-2.7 7.9-3.4 11.5-0.7 3.6-1.5 7.3-1.9 8.3-0.3 0.9-0.9 1.7-1.3 1.7-0.5 0-1.6-0.8-2.5-1.8-1.6-1.6-1.8-1.5-2.7 2.3-0.6 2.2-2.2 6.5-3.6 9.5-1.4 3-3.3 6.4-4.3 7.6-0.9 1.1-3.3 3.1-5.2 4.4-1.9 1.3-4.4 2.4-5.5 2.5-1.1 0-1.9 0.6-1.7 1.3 0.1 0.9-2.7 1.2-10.8 1.2-8.9 0-11.1-0.3-11.5-1.5-0.3-0.8-3-2.9-6-4.5-4.8-2.6-5.6-3.5-6.6-7.3-1.1-3.9-1.2-4.1-3.4 0.1l-4.5-2.5c-3-1.8-5.3-2.4-7-2-1.6 0.3-4.4 3.1-7.6 7.4-2.8 3.7-8.4 9.6-12.5 13-4.1 3.4-9 8.3-10.9 10.9-1.9 2.6-4.8 5.3-6.5 6-2.4 1-4.2 1-9-0.2-3.3-0.7-7.6-1.4-9.5-1.4-1.9 0-5.5-0.8-8-1.9-2.5-1.1-6.5-2.2-9-2.5-2.5-0.3-7.5-0.8-11.2-1.1-3.8-0.3-8-1.1-9.5-1.8-1.6-0.8-5.7-2-9.3-2.7-3.6-0.7-7.8-2-9.5-2.8-1.7-0.9-5.1-3.6-7.8-6.1-2.7-2.6-5-5.8-5.2-7.4-0.4-2.3-1.2-2.8-5.2-3.7-2.7-0.6-6.6-1.9-8.8-3-2.2-1.1-5.2-2-6.7-2-2.1 0-2.8 0.5-2.8 2 0 1.6-0.7 2-6 2v-9c0-5.3-0.4-9-1-9-0.6 0-1 3.2-1 7.5 0 6.1-0.4 7.9-2 9.8-1.3 1.4-2 3.6-2 5.9 0 3.1-0.4 3.9-2.2 4.3q-2.3 0.5-5 6c-1.6 3-3.2 5.7-3.8 6-0.5 0.3-1 1.4-1 2.5 0 1.1-0.7 2-1.5 2-0.8 0-1.7 0.9-2 2-0.5 1.8-1.3 2-10.5 2-6 0-10 0.4-10 1 0 0.6-3.6 1-8.7 1-6.8 0.1-9.1-0.3-10-1.5-0.9-1-1-2.1-0.4-3.3 0.5-0.9 2.7-2.3 5-3 2.4-0.7 4.1-1.8 4.1-2.7 0-1-1.4-1.7-3.7-2.1-2.1-0.4-5.1-1.5-6.8-2.5-1.6-1-3.9-2.6-5-3.6-1.1-1-4.2-3.3-7-5-2.7-1.7-6.1-4.4-7.5-6-1.4-1.5-3-4.2-3.6-5.8-0.6-1.6-1.6-2.9-2.2-2.8-0.7 0.2-1.6-1.1-2.2-2.7-0.6-1.8-1.5-2.8-2.2-2.4-0.7 0.3-2-0.3-2.8-1.2-1.3-1.4-1.5-7.9-1.8-41.8-0.2-26.7 0.1-40.5 0.8-41.4q1-1.2 0-2.7c-0.8-1.2-0.5-1.6 1.3-2 1.2-0.2 4.2-0.6 6.7-0.9 2.5-0.2 6.3-0.9 8.5-1.5 2.2-0.6 10.6-1.1 18.8-1.1 8.1 0 14.7-0.2 14.7-0.5 0-0.3-1.5-0.9-3.2-1.4-3.3-0.9-3.2-0.9 1.2-1 2.5 0 7.2 0.6 10.5 1.4 4.1 1 6.2 1.1 6.5 0.4 0.3-0.7 2.3-0.9 5.3-0.5 2.6 0.3 4.9 1.1 5.2 1.6 0.3 0.5 3.1 2.1 6.3 3.6 3.1 1.4 6.9 3.7 8.4 5.2 1.6 1.5 3.5 4.3 4.3 6.2 0.8 1.9 1.9 6.1 2.5 9.2 0.6 3.5 1.9 6.9 5.8 11.3l3.4-3.9c1.8-2.1 6.5-7.3 10.5-11.5 3.9-4.2 8.7-8.3 10.5-9.2 1.8-0.9 6-2.9 9.3-4.4 3.3-1.5 10.7-4.3 16.5-6.1 5.8-1.9 12.5-3.4 15-3.4 2.5 0 12.4 0.9 22 1.9 12.5 1.4 19.7 2.7 25 4.5 5.8 2.1 8.6 3.8 12.5 7.6 2.8 2.7 5.8 5 6.8 5 0.9 0 2.3-0.9 3-2 0.6-1.1 1.5-2 2-2 0.4 0 2.7-1.9 5.3-4.3 2.5-2.3 5.4-4.5 6.5-5 1-0.4 1.9-0.5 1.9-0.2 0 0.3-0.8 1.7-3.5 5.8l4-2.7c2.2-1.4 6.5-5 9.5-7.9 3.1-2.8 7.1-6.6 9-8.2 2.1-1.8 5.1-3.2 7.5-3.6 2.2-0.3 9.4-0.6 16-0.6zm611.3 160.8c0.2 1.3-0.2 2.9-0.7 3.4q-1.1 1-1.6-0.8c-0.3-0.9 0.1-2.5 0.7-3.4 1.1-1.5 1.3-1.4 1.6 0.8z"/>
		<path id="Path 3" class="s3" d="m542.5 798.2c-0.3 1.3-0.5 4.3-0.3 6.8l0.3 4.5c31.8 0.9 42.2 1.5 43.8 1.8 1.5 0.4 2.7 1.3 2.7 1.9-0.1 0.7-1.8 3.3-3.9 5.8-2.1 2.5-6.2 8.1-9.1 12.5-3 4.4-12.1 17.4-20.3 29-8.3 11.5-15.2 21.9-15.5 23-0.2 1.1 0.2 3.3 0.9 4.8 0.8 1.6 2.5 3.1 3.9 3.5 1.4 0.3 15.9 0.6 32.3 0.6l29.9 0.1c3-3.9 3.9-6.1 3.9-7.5 0-1.4-0.8-3.2-1.7-4-1.4-1.2-5.7-1.5-24.6-1.5-14.5 0-22.8-0.4-22.8-1 0-0.5 1-2.6 2.2-4.5 1.2-1.9 11.4-16.8 22.7-33 11.2-16.2 21.5-30.7 22.8-32.3l2.3-2.7-4.2-9.5-64.7-0.6z"/>
		<path id="Path 4" class="s4" d="m552.5 795.7c3.3 0.2 8.3 0.2 11 0 2.8-0.2 0-0.3-6-0.3-6 0-8.3 0.1-5 0.3zm-2 15c4.4 0.2 11.1 0.2 15 0 3.9-0.1 0.3-0.3-8-0.3-8.3 0-11.4 0.2-7 0.3z"/>
		<path id="Path 5" class="s5" d="m584.5 796.7c3.3 0.2 8.3 0.2 11 0 2.8-0.2 0-0.3-6-0.3-6 0-8.3 0.1-5 0.3zm0 82c3.3 0.2 8.3 0.2 11 0 2.8-0.2 0-0.3-6-0.3-6 0-8.3 0.1-5 0.3zm-32 14c2.8 0.2 6.8 0.2 9 0 2.2-0.2 0-0.3-5-0.3-5 0-6.8 0.1-4 0.3z"/>
		<path id="Path 6" class="s0" d="m777.7 136c0.3 2.5 0.8 9.2 1 15 0.2 5.8 0 15.1-0.4 20.7-0.4 5.7-0.5 10.3-0.1 10.3 0.5 0 1.1-5.3 1.4-11.8 0.4-6.4 0.4-17.3 0.1-24.2-0.3-6.9-1-12.9-1.6-13.5-0.6-0.7-0.8 0.6-0.4 3.5zm-458.7 486.3c0.3 0.3 8.4 3.3 18 6.7 9.6 3.4 18.4 6.4 19.5 6.7 1.1 0.3 1.8 0.3 1.5 0-0.3-0.3-4.1-2-8.5-3.7-4.4-1.8-10.7-4.1-14-5.1-3.3-1.1-7.8-2.5-10-3-2.2-0.6-4.7-1.4-5.5-1.7-0.8-0.3-1.3-0.3-1 0.1zm482.1 289.1c-0.1 1.3 0.9 1.5 4.9 1.3 2.8-0.1 5.1-0.7 5.3-1.2 0.1-0.5-2.1-1.1-5-1.3-4.1-0.2-5.2 0-5.2 1.2z"/>
		<path id="Path 7" class="s6" d="m739.5 26.3c-0.3 0.6-2.1 6.8-4 13.7-2 6.9-5.7 17.4-8.3 23.5-2.6 6-7.3 15.7-10.5 21.5-3.2 5.8-9.3 15.7-13.5 22-4.2 6.3-11.3 16-15.7 21.5-4.4 5.5-12.3 14.4-17.5 19.9-5.2 5.4-14.5 14.1-20.5 19.3-6 5.2-16 12.8-22 16.8-6 4-15 9.5-20 12.2-5 2.7-14.6 7.4-21.5 10.5-6.9 3.2-17.5 7.5-23.5 9.7-6 2.1-17.5 5.7-25.5 7.9-8 2.2-22.8 5.4-33 7-10.2 1.7-24.6 3.6-32 4.2-7.4 0.5-19.4 1-26.5 1-7.1 0-19.1-0.7-26.5-1.5-7.4-0.8-20-2.7-28-4.1-8-1.3-18.8-3.6-24-4.9-5.2-1.3-15.4-4.4-22.5-6.8-7.1-2.4-16.4-5.9-20.5-7.7-4.1-1.8-12.4-5.7-18.5-8.8-6.1-3-15.7-8.4-21.5-12-5.8-3.5-16.6-11-24-16.5-8.2-6.2-19-15.6-27.6-24.2-7.8-7.8-18-19.3-23.1-26-4.9-6.6-12-16.5-15.6-22-3.6-5.5-9.3-15.6-12.5-22.5-3.3-6.9-7.8-17-10-22.5-2.2-5.5-5.3-14.5-6.8-19.9-1.6-5.4-3.5-10.1-4.1-10.2-0.7-0.2-2 0.2-2.9 0.8-0.9 0.7-4.2 6.5-7.4 12.8-3.2 6.3-7.6 17.1-9.8 24-2.2 6.9-5.6 18.6-7.5 26-1.9 7.4-4.2 17.8-5.1 23-0.9 5.2-2 13.8-2.6 19-0.5 5.2-1 17.7-1 27.7 0 10.1 0.5 23.8 1.1 30.5 0.6 6.8 2.4 18.8 3.9 26.8 1.6 8 4.4 19.9 6.3 26.5 1.9 6.6 5.2 16.5 7.2 22 2 5.5 6.4 15.6 9.7 22.5 3.2 6.9 9.4 18.6 13.6 26 4.2 7.4 8.3 15.3 9.1 17.5 1.1 3 1.6 12.5 2.2 37.5 0.6 24.9 1.3 36.8 2.7 46.5 1.1 7.1 3.2 17.7 4.7 23.5 1.4 5.8 4.6 16.6 7.1 24 2.5 7.4 8.2 21.1 12.8 30.5 4.6 9.4 11 20.8 14.1 25.5 3.2 4.7 11.1 15 17.5 23 6.5 8 17.1 19.7 23.6 26.1 6.6 6.3 16.2 14.8 21.4 18.8 5.2 4 16.9 11.7 26 17.1 9.1 5.4 19.4 11.2 23 13 3.6 1.8 11.4 5.2 17.5 7.6 6.1 2.3 16.4 5.8 23 7.7 6.6 1.9 17.4 4.7 24 6.1 6.6 1.4 18.3 3 26 3.7 8.3 0.7 24.5 0.9 40 0.7 23.2-0.5 27.4-0.8 39-3.2 7.1-1.5 15.7-3.4 19-4.2 3.3-0.8 11.6-3.3 18.5-5.4 6.9-2.1 17.2-5.9 23-8.3 5.8-2.4 15.2-7 21-10.2 5.8-3.3 17-10.2 25-15.5 8-5.3 18.5-13 23.5-17.2 5-4.2 12.8-11.5 17.5-16.4 4.7-4.9 12.8-14.1 17.9-20.4 5.2-6.3 11.5-14.6 14.1-18.5 2.6-3.9 6.9-11 9.6-16 2.7-4.9 7.5-14.4 10.6-21 3.1-6.6 7.3-16.9 9.3-23 2-6.1 4.9-16.9 6.5-24 1.6-7.1 3.4-17.3 4-22.5 0.6-5.2 1.6-12.5 2.1-16.3 0.5-3.7 0.9-19.5 0.9-35.2 0-24.4 0.2-29 1.6-31.8 0.9-1.7 5.8-10.2 10.9-18.7 5.1-8.5 11-18.9 13-23 2.1-4.1 5.7-12.4 8-18.5 2.3-6.1 5.7-15.5 7.5-21 1.7-5.5 4.5-15.4 6-22 1.6-6.6 3.9-17.8 5.2-25 2-11.7 2.2-16.3 2.3-46 0-31.9-0.1-33.5-2.8-48-1.5-8.3-4.1-20.2-5.8-26.5-1.7-6.3-4.7-15.8-6.6-21-1.9-5.2-6.4-15.6-10-23-3.5-7.4-7.2-14.3-8.1-15.3-0.9-1-2-1.8-2.5-1.7-0.4 0-1 0.6-1.2 1.2z"/>
		<path id="Path 8" class="s1" d="m146.9 34.2c-7.2 7-9.3 9.7-12.7 16.8-2.5 5.1-4.9 12.3-6.1 18-1.1 5.2-2.8 16.2-3.7 24.5-0.9 8.2-2.4 18.4-3.5 22.5-1 4.1-3.5 12.7-5.5 19-3.2 9.9-3.7 12.7-3.6 20 0.1 4.7 0.6 10.1 1.2 12 0.6 1.9 1 6.8 1 10.7 0 4 0.5 10.6 1 14.5 0.6 4 1.7 9.8 2.5 12.8 0.8 3 2.1 8.5 2.9 12.2 0.9 3.8 1.6 8 1.6 9.5 0 1.6 1.1 6.2 2.4 10.3 1.4 4.1 3.2 11.8 4.2 17 0.9 5.2 2.7 12.6 4.1 16.5 1.4 3.9 6.3 14.9 11 24.5 4.7 9.6 9.8 20.2 11.4 23.5 1.5 3.3 3.3 8 4 10.5 0.6 2.5 2.7 9.2 4.6 15 2 5.8 3.9 10.9 4.3 11.5 0.4 0.6 1.1 2.6 1.5 4.5 0.4 1.9 1.3 3.8 1.9 4.2 0.7 0.5 1.2 8.6 1.4 25.5 0.2 13.6 0.7 29.5 1.2 35.3 0.5 5.8 1.3 12.5 1.8 15 0.6 2.5 1.3 7.6 1.7 11.5 0.3 3.9 1.5 10.8 2.6 15.5 1.1 4.8 4.1 12.9 6.8 18.5 2.7 5.5 6 11.6 7.3 13.5 1.3 1.9 4 6.2 6 9.5 2 3.3 6.4 9.6 9.7 14 3.4 4.4 10.1 12.8 14.9 18.7 4.8 5.8 11.2 13.7 14.2 17.4 3 3.7 9.6 11 14.5 16.2 4.9 5.2 12.2 12.2 16.1 15.6 3.9 3.3 12.2 9 18.5 12.5 6.3 3.5 13 7.4 14.9 8.7 1.9 1.3 5.7 4 8.5 6 3 2.1 8.4 4.5 13.5 6 4.7 1.4 11.2 3.5 14.5 4.6 3.3 1.2 10.5 4 16 6.3 5.5 2.3 12.5 4.9 15.5 5.8 3 0.9 9 2 13.2 2.6 4.3 0.6 13.3 1.1 20 1l12.3-0.1c-13.9-2.1-24.5-4.4-32.5-6.4-8-2-18.3-4.9-23-6.4-4.7-1.5-13.4-4.8-19.5-7.4-6.1-2.5-17.1-8-24.5-12.2-7.4-4.2-19.1-11.4-26-15.9-6.9-4.6-17.4-12.7-23.5-18.2-6.1-5.5-14.4-13.7-18.6-18.4-4.2-4.6-11.6-13.4-16.4-19.4-4.9-6-11.5-15-14.8-20-3.2-5-9.4-16-13.6-24.5-4.2-8.5-9.5-20.9-11.8-27.5-2.3-6.6-5.3-16.1-6.6-21-1.4-4.9-2.9-11-3.5-13.5-0.6-2.5-1.6-7.4-2.1-11-0.6-3.6-1.5-10.8-2.1-16-0.6-5.2-1.3-22.8-1.6-39-0.4-18.5-1-31-1.8-33.5-0.7-2.2-4.8-10.5-9.3-18.5-4.4-8-9.9-18.1-12-22.5-2.2-4.4-6.3-13.6-9.1-20.5-2.8-6.9-6.7-18.1-8.7-25-2-6.9-4.9-19.3-6.6-27.5-1.6-8.3-3.7-21.5-4.5-29.5-1.2-10.7-1.5-20-1.1-35.5 0.4-13.6 1.3-25.7 2.7-34.5 1.1-7.4 3.9-20.5 6.1-29 2.2-8.5 5.6-20.5 7.6-26.5 1.9-6 6.3-16.6 9.6-23.4 3.4-6.8 7.1-13 8.2-13.8l2-1.3c-3.1 0-7.7 3.6-12.6 8.2zm14.5-7.4c0.3 0.4 2.3 6.5 4.5 13.7 2.2 7.2 6.1 18 8.6 24 2.6 6 6.9 15.3 9.6 20.5 2.6 5.2 7.8 14 11.5 19.5 3.7 5.5 9.6 13.8 13.1 18.5 3.5 4.7 9.8 12.3 14.1 17 4.2 4.7 12.2 12.7 17.7 17.8 5.5 5.1 15.2 13.2 21.6 18 6.4 4.8 17.5 12.2 24.5 16.4 7.1 4.3 19.4 10.9 27.4 14.7 8 3.8 20.6 9 28 11.6 7.4 2.5 18.7 5.9 25 7.5 6.3 1.6 16.7 3.8 23 4.9 6.3 1.1 17.1 2.7 24 3.6 7.7 0.9 20.9 1.5 34.5 1.5 13.2 0 27.2-0.6 35-1.5 7.1-0.8 19.3-2.7 27-4.1 7.7-1.4 19.6-4.2 26.5-6 6.9-1.9 17.2-5.1 23-7.1 5.8-1.9 17-6.5 25-10.1 8-3.6 18.1-8.6 22.5-11 4.4-2.4 10.9-6.2 14.5-8.5 3.6-2.2 11-7.4 16.5-11.5 5.5-4.1 17.7-15.2 27.1-24.6 10.2-10.3 20.4-21.7 25.6-28.6 4.7-6.3 11.7-16.4 15.6-22.5 3.8-6 9.9-17 13.6-24.2 3.6-7.3 7.9-16.6 9.5-20.5 1.6-4 4-11.6 5.5-16.8 1.4-5.2 2.3-9.6 2.1-9.7-0.3-0.1-4.1 4.1-8.5 9.3-4.4 5.2-9.5 12.2-11.4 15.7-1.9 3.4-5.1 10.3-7.1 15.2-2.1 5-6.2 14.2-9.2 20.5-3 6.3-7.7 14.4-10.3 18-2.7 3.6-12.2 13.7-21.2 22.6-9 8.8-19.2 18.7-22.8 22-3.6 3.2-12.8 10.6-20.5 16.3-7.7 5.8-17.4 13-21.5 16.1-4.1 3.1-9.5 6.8-12 8.2-2.5 1.4-6.3 3.6-8.5 4.8-2.2 1.2-5.8 3.3-8 4.5-2.2 1.3-8 4-13 6-5.1 2.1-12.7 4.3-17.5 5-4.7 0.7-13.9 2.1-20.5 3-6.6 0.9-15 2.1-18.8 2.6-3.7 0.5-8.1 0.9-9.7 0.9-1.6 0-9 1.4-16.3 3-7.2 1.7-16.3 3.9-20.2 5-3.9 1-11.1 2.2-16 2.6-6.3 0.4-12.5 0.1-20.5-1-6.3-0.9-14-2.1-17-2.7-3-0.6-11.6-2.4-19-4-7.4-1.6-16.4-3.7-20-4.6-3.6-0.9-6.9-2-7.5-2.5-0.6-0.4-2-0.8-3.3-0.8-1.2 0-2.4-0.3-2.6-0.7-0.2-0.5-2.1-1.2-4.2-1.6-2.2-0.4-6.6-1.7-9.9-2.7-3.3-1.1-8.9-2.9-12.5-3.9-3.6-1.1-11-3.8-16.5-5.9-5.5-2.1-11.4-4.5-13-5.4-1.6-0.8-5-2.6-7.4-3.9-2.4-1.3-6.9-4.8-10-7.8-3.1-3-11.2-10.9-18.1-17.6-6.9-6.7-13.8-13-15.5-14.1-1.7-1-6.1-4.3-9.9-7.4-3.9-3.2-10.5-10.2-15.4-16.5-4.8-6-11.2-14-14.4-17.7-3.2-3.8-6.9-8.5-8.2-10.5-1.4-2.1-3.6-7.4-5-11.8-1.4-4.4-2.8-9.8-3.2-12-0.3-2.2-2.2-9.6-4.2-16.5-1.9-6.9-4.3-14.1-5.2-16-1-1.9-3.7-5-6.1-6.8-2.4-1.8-6.8-4.8-9.7-6.7-2.8-1.9-5-3.2-4.8-2.7zm582.8 0.8c0.9 1 4.4 7.5 7.6 14.4 3.3 6.9 8 17.9 10.5 24.5 2.5 6.6 5.9 17.6 7.6 24.5 1.6 6.9 3.8 17.5 4.8 23.5 1.2 7.6 1.9 9.9 2.1 7.5 0.2-1.9-0.1-8.4-0.7-14.5-0.6-6-1.8-13-2.7-15.5-1.3-3.4-1.7-8.4-1.9-20-0.2-15.2-0.2-15.7-3.4-22.5-1.8-3.8-4.4-8.3-5.9-9.8-1.5-1.6-5.4-4.8-8.7-7.1-3.3-2.3-7.1-4.8-8.5-5.6-2.4-1.2-2.4-1.2-0.8 0.6zm34.2 126.9c0 7.7 0.2 10.6 0.3 6.5 0.2-4.1 0.2-10.4 0-14-0.2-3.6-0.3-0.2-0.3 7.5zm-3.4 49.7c-0.6 4.6-1.8 11.4-2.6 15.3-0.8 3.8-1.2 7.2-1 7.5 0.3 0.3 1.4-3.8 2.5-9 1.1-5.2 2.3-12.3 2.6-15.8 0.4-3.4 0.4-6.2 0.2-6.2-0.3 0-1 3.7-1.7 8.2zm-12.4 52.6c-1 3.1-3.8 10.9-6.3 17.2-2.5 6.3-6.4 15.3-8.7 20-2.4 4.7-8 14.6-12.6 22-4.5 7.4-8.9 14.9-9.9 16.5-1.3 2.5-1.7 7.9-2.3 34-0.3 17.1-0.9 34.6-1.4 39-0.5 5.7-0.4 8.2 0.4 8.7 0.9 0.6 1-0.5 0.6-4-0.4-3-0.2-5.6 0.6-7.2 0.7-1.4 2-5.4 2.7-9 0.9-4 1.6-13.8 1.8-25.5 0.2-15.9 0.6-20 2.4-25.5 1.1-3.6 4.1-9.9 6.7-14 2.6-4.1 6.7-11.3 9.2-16 2.4-4.7 5.3-10.3 6.5-12.5 1.1-2.2 3.3-8.5 4.8-14 1.6-5.5 3.4-12.7 4-16 0.5-3.3 1.6-8.8 2.4-12.3 0.7-3.5 1.2-6.5 1.1-6.8 0-0.2-0.9 2.2-2 5.4zm-43.2 163.9c-0.3 2.1-1.9 9.9-3.4 17.3-1.6 7.4-4.3 18-6 23.5-1.8 5.5-5.1 14.3-7.3 19.5-2.2 5.2-6.2 13.8-8.9 19-2.8 5.2-7.3 13.3-10.1 18-2.8 4.7-8.5 12.8-12.6 18-4.1 5.2-11.1 13.8-15.6 19-4.5 5.2-11.3 12.4-15.1 15.9-3.8 3.6-10.3 9.2-14.4 12.5-4.1 3.3-13.8 10.1-21.5 15.1-7.7 5.1-18.5 11.8-24 14.8-5.5 3.1-15 7.7-21 10.2-6 2.6-17.7 6.6-26 9.1-8.2 2.5-21.5 5.8-29.5 7.5-8 1.6-21 3.6-29 4.3l-14.5 1.4c17.8 0.5 27.3 0.5 32.5 0.4 5.2-0.1 14.2-1.1 20-2.3 5.8-1.1 15.2-3.4 21-4.9 5.8-1.6 14.3-4.2 19-5.9 4.7-1.6 11.2-4.1 14.5-5.6 3.3-1.5 8.7-3.7 12-4.9 3.3-1.2 8.7-4.1 12-6.3 3.3-2.2 12.5-8 20.5-12.8 8-4.8 16.5-10.2 19-11.9 2.5-1.7 6.3-4.6 8.4-6.6 2.1-1.9 6.3-6.8 9.2-10.8 3-3.9 8.9-11.1 13.2-16 4.3-4.8 10.4-12.1 13.6-16.2 3.2-4.1 7.1-9.8 8.6-12.5 1.6-2.8 4.4-9 6.4-14 1.9-5 4.9-12.1 6.6-16 1.8-3.9 5.3-11.5 8-17 2.6-5.5 6.3-15.2 8.3-21.5 1.9-6.3 4.2-14.9 5.1-19 0.8-4.1 1.8-11.4 2.1-16.3 0.4-4.8 0.4-8.7 0.1-8.7-0.3 0-0.8 1.7-1.2 3.7zm-23.9 370.7c-3.9 0.7-7.7 1.7-8.6 2.4-1.3 0.9 2.6 1.2 18.4 1.2h20.1c-7.5-3.7-11.1-4.5-15.9-4.6-3.9-0.1-10.1 0.3-14 1zm-399.5 1.6c-2.5 0.5-0.9 0.7 5.5 0.8 7.2 0 8.3-0.2 5.4-0.9-1.9-0.5-4.4-0.8-5.5-0.8-1 0.1-3.5 0.5-5.4 0.9zm524 10.3c1.4 1.8 6.8 8.5 12 15.1 5.2 6.5 14.9 18.9 21.5 27.6 6.6 8.7 12.4 15.9 12.9 16.1 0.6 0.2 1.2-3.4 1.4-8.1 0.2-4.7 0.1-15.5-0.3-24-0.5-11.7-0.9-15.2-1.8-14.3-0.6 0.8-3.5 1.3-6.9 1.3-3.2 0-6-0.5-6.3-1q-0.5-1-2.5 0c-1.3 0.6-2.8 0.7-4.2 0.1-2.2-0.9-2.1-1 0.7-1.1l3-0.2c-4.6-1.1-8.8-3-12.3-4.9-4.1-2.2-5.8-3.7-5-4.1q1.3-0.8-0.9-0.8c-1.3 0-2.4-0.4-2.5-0.9-0.2-0.5-2.8-1.6-5.8-2.4l-5.5-1.6zm-143.8-1c-0.6 0.6-1.9 3.2-3 5.7-1.8 4-1.8 4.6-0.4 5.5 1.1 0.8 1.2 1.5 0.5 3-0.6 1.1-2.1 7-3.3 13-1.2 6.1-2.4 15.1-2.6 20-0.3 5-0.7 9.2-1 9.5-0.3 0.3-0.9-0.2-1.4-1q-1-1.5-1-0.2c0 0.6 2 5.4 4.5 10.5 2.4 5 4.7 10.3 5 11.7 0.3 1.4 1.4 3.6 2.5 5l2 2.5c0-67-0.2-86.5-0.4-86.5-0.2 0-0.8 0.6-1.4 1.3zm-503.1 3.2c-3.1 1.1-3.1 1.1 3.6 2.3 3.7 0.6 9.5 2.5 12.8 4.1 3.3 1.5 8.2 4.8 10.9 7.2 2.7 2.4 6.1 6.2 7.7 8.4 1.5 2.2 4 7.2 5.5 11 2.1 5.6 2.7 8.8 2.8 15.6 0.1 7.8-0.2 9.1-3.2 15-1.8 3.5-5.2 8.4-7.5 10.9-2.3 2.5-6.9 6.2-10.2 8.2-3.3 2-7.9 4.3-10.3 5-2.3 0.7-4.2 1.6-4.2 2.1 0 0.4 0.8 0.7 1.8 0.7 1.4 0 1.5 0.2 0.2 1q-1.5 1-0.2 1c0.6 0 3.9-0.9 7.2-2 3.3-1.1 8-3.2 10.4-4.7 2.4-1.6 7-4.6 10.2-6.8 3.1-2.2 7.8-6.3 10.3-9 2.5-2.8 6.1-7.3 7.9-10l3.2-5c-0.1-20.1-0.5-25.1-0.9-24-0.5 1.6-1.2 0.4-3.2-5.3-1.3-4-4-9.4-5.9-12-2.8-3.7-5.6-5.7-13.4-9.7-8.9-4.5-10.4-5-16.4-4.9-3.7 0-8.2 0.5-9.9 1.2-2 0.7-3.1 0.8-2.8 0.2 0.3-0.5-0.3-1.1-1.4-1.3-1-0.2-3.2 0.1-5 0.8zm-21.1 4.4c-1.4 0.4-5.4 2.3-9 4.2-3.6 1.9-8.9 5.8-11.7 8.6-2.9 2.9-6 6.9-6.8 8.8-0.8 1.9-1.5 5.9-1.4 8.8 0 2.8 0.4 7.2 0.8 9.7l0.8 4.5c1.1-6.2 1.9-9.8 2.5-12 0.5-2.2 2.2-6.2 3.6-9 1.4-2.7 4.8-7.4 7.6-10.4 2.8-3 7.4-6.8 10.1-8.6 2.8-1.7 6.4-3.7 8-4.3 2.8-1 2.9-1 0.5-1-1.4 0-3.6 0.3-5 0.7zm162.3-0.2l-13.3 0.3c-0.1 74.9 0 75.5 1.8 73 1-1.4 2.7-5 3.7-8 0.9-3 2.1-6.5 2.6-7.7 0.5-1.3 0.9-6 0.9-10.5 0-4.6 0.4-8.7 0.9-9.3 0.4-0.5 1.7-3.7 2.7-7 1.4-4.6 2-5.4 2.2-3.5 0.2 1.4-0.3 4.4-1 6.8-0.7 2.3-1.6 4.2-2 4.2-0.5 0-0.8 1.9-0.7 4.3 0 2.3 0.3 3.5 0.7 2.7 0.3-0.8 1.4-2.3 2.4-3.2 1.1-1.1 1.8-3.2 1.8-5.3 0-1.9 0.7-6.1 1.6-9.2 0.9-3.2 2.6-7.1 3.9-8.8 1.2-1.6 2.5-3.9 2.8-5 0.4-1.1 1-4.8 1.5-8.2 0.4-3.5 0.8-6.2 0.7-6.1 0 0.1-6 0.4-13.2 0.5zm-295 2.1c-2.2 0.2-2.2 0.4-0.9 4 0.7 2 1.6 5.3 1.9 7.2 0.6 3 1.2 3.7 4.7 4.8 2.4 0.7 5 2.5 6.5 4.5 1.3 1.7 2.8 5 3.4 7.2 0.7 3.2 0.9 1.2 1-9.7 0.1-7.6 0.1-14.5 0.1-15.3 0-0.8 0-1.9 0-2.5 0-0.6-2.9-0.9-7.2-0.7-4 0.1-8.3 0.3-9.5 0.5zm42-0.1l-7.3 0.3c0 59 0.4 72.2 1 72.5 0.6 0.3 1.2 0.1 1.5-0.5 0.3-0.5 0.1-1-0.5-1-0.5 0 0.4-2.8 2.2-6.2 2.5-5 3.4-8.6 4.5-17.3 0.8-7.3 2-12.5 3.5-15.5l2.3-4.5c1 8.9 1.1 8.8 1.7 2 0.4-4.2 1.7-9 3.2-12 1.3-2.7 2.9-7.7 3.5-11 0.6-3.3 1.1-6.3 1.1-6.7 0-0.5-2.1-0.7-4.7-0.6-2.7 0.1-8.1 0.3-12 0.5zm203.3 3.6c0.4 2.3 1.1 6.2 1.6 8.7 0.6 2.5 1.3 11 1.7 19 0.5 11.4 1.1 15.3 2.5 18 1.1 1.9 3.2 6.7 4.7 10.5 1.6 3.9 2.9 7.5 2.9 8 0 0.6 1.4 2.6 3 4.5l2.9 3.5 0.1-76.5h-20zm447.6-3.5l-18.2 0.3 0.5 23.5c26.6 0.7 34.6 1.2 34.9 1.5 0.4 0.2 0.3 3.8-0.1 8l-0.8 7.5-35 1c0.5 15.5 1.1 20.7 1.6 21.7 0.8 1.6 2.6 1.8 16.1 1.8 8.4-0.1 17.4 0.3 19.9 0.7l4.7 0.8c0.9-7.4 1.4-11.6 1.7-14 0.3-2.9 0.1-4.4-0.5-4-0.6 0.2-0.8-0.1-0.5-0.8 0.3-0.7 0-2.6-0.6-4.2-0.7-1.7-1.6-4.8-2-7-0.4-2.2-1.2-5.6-1.8-7.5-0.8-3-0.5-4.3 1.8-8.5 2.2-4.1 2.7-6.3 2.6-11.8 0-3.7 0.4-6.9 1-7.2 0.5-0.2 0.4-0.4-0.3-0.5-0.7 0-1-0.5-0.7-1 0.3-0.6-0.9-0.9-2.8-0.8-1.8 0.1-11.4 0.4-21.5 0.5zm106 44.6c-0.2 27.9-0.1 29.6 1.5 29.1 1-0.3 4.2-0.8 7.3-1.1 3-0.3 7.3-1.2 9.5-1.9 2.2-0.7 3.3-1.4 2.5-1.4q-1.4-0.1-0.5-1.1c0.7-0.7 3.2-0.5 8 0.7 5.5 1.4 6.5 1.9 4.5 2.3-2 0.5-0.8 1.1 5.5 2.8 4.4 1.1 8.1 1.9 8.2 1.7 0.2-0.3-2.4-3.7-5.6-7.7-3.2-4-8.7-11.3-12.2-16.2-3.5-5-9.7-12.6-13.8-17-4-4.4-8.4-10.1-9.6-12.5-1.3-2.5-2.9-5.2-3.7-5.9-1.2-1.2-1.4 2.9-1.6 28.2zm67.1 1.2c0 12.1 0.2 16.8 0.6 12 0.3-4.4 0.3-13.4 0-20-0.5-10.1-0.6-8.9-0.6 8zm-759.8 3.5c0.3 3.5 1.3 8.9 2.2 11.9 1 3.1 3.4 7.2 5.8 9.8 2.2 2.5 5.2 5.1 6.7 5.9 1.5 0.7 3 1.4 3.3 1.4 0.2 0 2.2 0.7 4.2 1.5 2.1 0.9 4.9 1.8 6.3 2.1 1.3 0.2-0.2-1-3.5-2.7-3.3-1.8-8.8-6-12.2-9.3-3.8-3.8-7.2-8.4-9-12.1-1.5-3.3-3.1-8.1-3.5-10.5-0.6-3.5-0.6-3-0.3 2zm560.2 33.8c1 0.7 2.7 1.4 3.8 1.6 1.1 0.2 4.7 0.8 8 1.5 3.3 0.6 8.3 1.1 11.2 1.1 2.9 0 7.9-0.8 11-1.6 3.2-0.9 6.3-2.2 7-2.8 0.9-0.9 0.6-1.2-1.3-1.4-1.3-0.1-2.3 0.1-2 0.5 0.2 0.4-2 0.6-4.8 0.5-2.8-0.1-11.8-0.4-19.9-0.5-12.3-0.2-14.5 0-13 1.1z"/>
		<path id="Path 9" fill-rule="evenodd" class="s2" d="m158.7 24c2.1 0 5.3 1.3 8.8 3.5 3 1.9 6.3 4.3 7.3 5.3 0.9 1.1 3.1 3.4 4.7 5.2 2.7 2.9 2.4 2.8-2.7-1.1-3.1-2.4-8-5.9-10.8-7.7-2.7-1.7-6.2-3.5-7.7-3.8-2.3-0.5-3.7 0.6-11.4 8.3-7.1 7.2-9.5 10.4-12.7 17.3-2.4 5-4.9 12.4-6.1 18-1.1 5.2-2.4 12.4-4 22.5l0.5-7.5c0.3-4.1 1.2-10.4 1.9-14 0.8-3.6 2-8.3 2.8-10.5 0.8-2.2 2.9-7.1 4.8-10.9 2.1-4.4 5.4-8.9 8.7-12 2.9-2.8 6.9-6.8 8.9-8.9 2.8-2.8 4.4-3.7 7-3.7zm231.2 36c0.2 0-0.4 0.8-1.3 1.7-0.9 1-1.3 2.1-0.9 2.6 0.5 0.4 0.1 0.8-0.7 0.8-0.8 0-2.3 0.2-3.2 0.5-1 0.2-1.9 0.2-1.9-0.1-0.1-0.2 1.6-1.6 3.7-3 2.2-1.4 4.1-2.5 4.3-2.5zm144.5 7c0.3 0 3.1 1.1 6.1 2.5 3 1.4 5.8 3.1 6.2 3.7 0.5 1 0.3 1-1 0-0.9-0.6-2.4-1-3.2-0.7-0.8 0.3-1.3 0-1-0.5 0.3-0.5-1.1-1.5-3-2-1.9-0.5-3.8-1.5-4.1-2-0.3-0.5-0.3-1 0-1zm237.5 6c0.5 1.4 1 3.8 1.1 5.5 0.1 2.6 0.3 2.7 1 1 0.8-1.7 0.9-1.6 0.9 1-0.1 1.7 0.2 3.9 0.5 5 0.3 1.1 1.2 5.2 2.1 9 0.8 3.8 2.1 16.7 2.9 28.5 0.7 11.8 1.1 29.6 1 39.5-0.2 9.9-0.8 22.1-1.4 27-0.5 4.9-1.2 11.9-1.5 15.5-0.3 3.6-1.5 10.3-2.5 15-1 4.7-2.6 12.1-3.5 16.5-0.8 4.4-1.4 8.1-1.3 8.2 0.2 0.2 1.4-3.2 2.7-7.5 1.3-4.2 3.2-9 4.3-10.7 1-1.7 1.8-4.3 1.9-6 0-1.7 0.8-5.9 1.8-9.5 1-3.6 2.3-7.6 4.1-11.5l-0.4 2.5c-0.3 1.4-1 5.9-1.6 10-0.5 4.1-1.4 8.6-2 10-0.5 1.4-1.6 6-2.5 10.3-0.8 4.2-1.5 9.3-1.5 11.2 0 1.9-0.5 5.6-1.1 8.3-0.7 2.6-2.4 8.5-6.4 21.7l-0.3-4.5c-0.1-2.5-0.5-5.6-1.4-9.5l-1.2 3c-0.7 1.6-2.3 7.5-3.6 13-1.6 6.7-2.5 9.3-3 8-0.4-1.5-1.3 0.1-3.2 6-1.4 4.4-5.5 13.9-9 21-3.5 7.1-8 17.3-10 22.5-2 5.2-4.6 12.3-5.7 15.8-1.6 4.8-2.1 8.9-2.2 18.4-0.1 6.8-0.4 11.2-0.7 9.8-0.5-2.1-0.7-1.7-1.6 2.2-0.9 4-1.1 2-1-12.5 0.1-14.5 0.5-18.2 2.2-23.7 1.2-3.6 4.2-9.9 6.8-14 2.6-4.1 6.7-11.3 9.2-16 2.4-4.7 5.3-10.3 6.5-12.5 1.1-2.2 3.3-8.5 4.8-14 1.6-5.5 3.6-13.8 4.5-18.5 0.8-4.7 2.2-11 3-14 0.7-3 1.1-5.7 0.9-6-0.3-0.3 0.1-1.1 0.8-1.8 0.6-0.7 0.9-1.3 0.5-1.2-0.5 0-0.3-1.5 0.3-3.3 0.6-1.7 1.1-3.6 1.2-4.2 0.2-0.6 0.6-1.6 1-2.3 0.4-0.6 0.5-1.5 0.2-2-0.3-0.4 0-1.1 0.5-1.7 0.6-0.6 1.1-2.6 1.3-4.6 0.1-2.1 0.4-3.5 0.7-3.4 0.3 0.2 1.3-3.3 2.4-7.8 1-4.5 2-13.8 2.3-20.7 0.3-7.9 0.9-12.8 1.6-13.2 0.9-0.5 1.2-6.9 1.2-21.5 0-14.4-0.7-27.4-2.2-42.3-1.3-11.8-3-23.5-3.8-26-0.9-2.5-1.8-8.3-2-13-0.3-5.6-0.1-7.6 0.4-6zm-222.2 5.1c1.2 0.8 2.6 2.1 3.1 2.9 0.5 0.8 1.2 3.2 1.6 5.2 0.4 2.3 0.2 3.8-0.4 3.8-0.5 0-1-0.9-1-2 0-1.1-0.5-3.2-1.2-4.8-0.6-1.5-1.9-3.6-2.7-4.6-1.5-1.8-1.5-1.8 0.6-0.5zm-355.5 5.9c0.6 1.4 2.2 4.7 3.5 7.5 1.8 3.6 2 4.6 0.8 3.5-0.9-0.8-2.5-3.9-3.6-6.8-1-2.8-1.9-5.5-1.8-6 0-0.4 0.5 0.4 1.1 1.8zm364 2.5c0.6 0.3 1 1.7 0.9 3.1-0.1 1.3-0.8 3.1-1.6 3.9-0.8 0.8-1.5 1.7-1.5 2 0 0.3 0 1.3 0 2.2 0 1-0.7 2.7-1.6 3.8-0.8 1.1-1.2 1.3-0.8 0.5 0.4-0.8 0.9-3.1 1.1-5 0.3-1.9 0.8-4.1 1.4-4.8 0.5-0.6 0.8-1.5 0.8-2-0.1-0.4 0-1.5 0.1-2.5 0.1-1 0.7-1.5 1.2-1.2zm-1.5 15.5c0.2 0-1.4 2-3.4 4.5-2.1 2.5-4.5 4.8-5.3 5.1-0.8 0.4-2.7 1-4.2 1.5-1.6 0.5-2.8 0.6-2.8 0.1 0-0.4 2.3-1.7 5-3 2.8-1.2 5-2.9 5-3.7 0-0.8 0.3-1.3 0.8-1 0.4 0.2 1.6-0.4 2.6-1.5 1-1.1 2.1-2 2.3-2zm-284.2 71.5c4.9 4.3 10.1 8.7 11.5 9.9 1.4 1.1 5.4 4 9 6.3 3.6 2.3 9.6 5.5 13.5 7.1 3.9 1.6 12.2 4.6 18.5 6.7 6.3 2.1 14.1 4.7 17.2 5.9 3.2 1.1 5.6 2.3 5.3 2.6-0.3 0.3-3.3-0.5-6.7-1.7-3.5-1.3-9.2-3.2-12.8-4.2-3.6-1.1-11-3.8-16.5-5.9-5.5-2.1-11.4-4.5-13-5.4-1.6-0.8-5-2.6-7.4-3.9-2.4-1.3-9.6-7.5-16-13.8-11.5-11.2-11.5-11.2-2.6-3.6zm-154.5 34c0.5 1.6 1.6 6 2.4 9.7 0.9 3.8 1.6 8 1.6 9.5 0 1.6 1.1 6.2 2.4 10.3 1.4 4.1 3.2 11.8 4.2 17 0.9 5.2 2.7 12.6 4.1 16.5 1.4 3.9 6.3 14.9 11 24.5 4.7 9.6 9.6 19.7 11 22.5 1.3 2.7 3.7 9.3 5.3 14.5 1.5 5.2 3.1 10.4 3.6 11.5 0.6 1.6 0.3 1.5-1.3-0.5-1.1-1.4-2.8-5-3.8-8-0.9-3-4.3-10.7-7.5-17-3.2-6.3-6.9-13.8-8.3-16.5-1.4-2.8-5.3-10.6-8.6-17.5-3.4-6.9-7.2-15.9-8.6-20-1.6-4.7-2.8-10.8-3.1-16.5-0.3-4.9-1.5-15.1-2.5-22.5-1.1-7.4-2.2-15.1-2.4-17-0.4-3.5-0.4-3.5 0.5-0.5zm274.8 11.5c0.6 0 2.9 0.6 4.9 1.4 2.1 0.8 6 1.8 8.8 2.2 2.7 0.4 8.4 0.9 12.5 1.1 4.1 0.2 12.4 0.4 18.5 0.4 6.1-0.1 12.8-0.6 15-1.2 2.9-0.8 3.6-1.3 2.5-1.9-0.9-0.5 1.3-1 6-1.3 4.1-0.4 7.9-0.3 8.3 0.1 0.4 0.4-1.5 1.7-4.3 2.9-2.8 1.3-7 2.3-9.5 2.3-2.5 0-7.5 0.4-11.3 1-3.7 0.5-10.3 1.3-14.7 1.8-4.4 0.5-10.5 0.6-13.5 0.1-3-0.4-7.8-1.4-10.5-2.2-2.8-0.8-7-2.6-9.5-4.1-2.5-1.4-3.9-2.6-3.3-2.6zm61.3 9.3c3.6-0.1 4.1 0 2.2 0.8-1.2 0.5-7.5 1.2-14 1.5-6.8 0.4-11.4 0.3-10.9-0.2 0.5-0.5 4.8-1.1 9.5-1.4 4.8-0.3 10.7-0.6 13.2-0.7zm289.3 103.7c0.3 0-0.2 1.9-1 4.2-0.8 2.4-2.1 8.8-2.9 14.3-0.8 5.5-1.6 10.2-1.9 10.5-0.2 0.3-0.7-2.2-1.1-5.5-0.5-5.2-0.2-6.8 2-11.5 1.4-3 2.6-5.8 2.7-6.2 0-0.4 0.5-1.8 1-3.2 0.5-1.4 1-2.6 1.2-2.6zm-18.8 68.4c0.1 0.3-0.2 2.1-0.7 4-0.4 2-0.6 4-0.3 4.6 0.3 0.5 0 1.2-0.5 1.5-0.6 0.3-1-0.8-1-2.5 0-1.6 0.5-4.1 1.2-5.5 0.7-1.4 1.3-2.3 1.3-2.1zm-552.6 15.6c0.5 3 1.2 7.5 1.5 10 0.5 3.1 0.4 3.9-0.3 2.5-0.5-1.1-1.2-5.6-1.5-10-0.4-6.7-0.4-7.1 0.3-2.5zm550.3 3.5c0.4 0.3 0.6 2.4 0.3 4.7-0.4 3.4-0.3 3.9 0.5 2.3 0.8-1.6 0.9-1.3 0.5 1.5-0.3 1.9-0.6 5.1-0.8 10.5l-0.8-3.5c-0.8-3.3-0.8-3.3-0.6 1.1 0.1 2.6 0 4.5-0.3 4.4-0.3-0.2-0.6 1.7-0.7 4.1-0.2 2.4-2.1 9.7-4.2 16.1-2.2 6.5-5.5 15.4-7.4 19.8-1.8 4.4-3.9 8.9-4.6 10-1.1 1.9-1.1 1.8-0.5-0.5 0.3-1.4 1.7-5.6 3.1-9.5 1.3-3.9 4.2-12.4 6.3-19 2.1-6.6 4.5-15.4 5.3-19.5 0.9-4.1 1.9-11 2.3-15.3 0.4-4.2 1.1-7.5 1.6-7.2zm-547 25l0.9 4.5c0.5 2.5 1.7 7.9 2.5 12 0.9 4.1 2.7 10.9 4 15 1.3 4.1 4 10.2 5.9 13.5 1.9 3.3 3.3 6.1 3 6.2-0.3 0.2-2.1-2.5-4-6-1.9-3.4-4.6-9.1-6.1-12.7-1.4-3.6-3.5-9.9-4.5-14-1-4.1-1.8-10-1.8-13zm18.6 54.8c0.6 0.4 2.3 2.4 3.5 4.4 1.3 2.1 2.7 4.6 3 5.5 0.4 1 0.5 1.8 0.2 1.8-0.3 0-1.3-1.5-2.3-3.3-1-1.7-2.7-4.5-3.8-6.2-1-1.6-1.3-2.6-0.6-2.2zm8.1 12.7c0.6 0 1.3 0.6 1.5 1.2 0.2 0.7 3.1 4.9 6.5 9.3 3.4 4.4 10.1 12.8 14.9 18.7 4.8 5.8 11.2 13.7 14.2 17.4 3 3.7 9.6 11 14.5 16.2 5 5.2 12.2 12.2 16.1 15.6 3.9 3.3 12.4 9 18.9 12.6 6.4 3.6 14.9 8.9 18.9 11.8 3.9 3 8.5 6.1 10.1 6.9 1.7 0.9 10.2 4.1 19 7.1 8.8 3 17.4 6.1 19 6.8 1.7 0.7 2.7 1.3 2.3 1.4-0.5 0-3.8-0.9-7.5-2.1-3.8-1.2-12.6-4.1-19.8-6.6-7.1-2.4-17-6.7-22-9.6-4.9-2.8-10.3-6-12-7.1-1.6-1.2-2.6-1.5-2.2-0.9 0.4 0.7-2-0.3-5.3-2.2-3.3-1.9-6-3.7-6-4 0-0.3 0.6-0.2 1.3 0.2q1.2 0.8 0.5-0.5c-0.5-0.6-1.5-1-2.3-0.7-0.8 0.3-1.3 0-1-0.5 0.3-0.5-0.3-0.9-1.2-0.8-1 0.2-1.7-0.3-1.5-1 0.1-0.6-1.9-2.7-4.5-4.6-2.7-1.9-9.8-8.5-15.8-14.8-6.1-6.2-14.7-15.8-19.3-21.3-4.5-5.5-12.9-15.4-18.8-22-5.9-6.6-11.6-13.6-12.8-15.5-1.2-1.9-3.3-5.2-4.5-7.3-1.4-2.1-1.9-3.7-1.2-3.7zm482.7 19c0.2 0-0.6 1.5-1.8 3.2-1.2 1.8-3.6 5-5.2 7-1.7 2.1-3.5 3.8-4.1 3.8-0.5 0 0.4-1.4 2.1-3.2 1.7-1.8 4.3-5 5.9-7.1 1.5-2 2.9-3.7 3.1-3.7zm-34.1 41c0.1 0 0.1 0.8 0 1.7-0.1 1-2.7 4.7-5.6 8.3-3 3.5-7 8-9.1 10-2 1.9-8.3 6.3-14 9.8-5.6 3.5-14.6 9-19.8 12.3-5.2 3.3-12 7.8-15 10.1-3 2.3-10.4 6.7-16.5 9.9-6 3.2-15.7 7.6-21.5 9.9-5.8 2.2-10.6 3.9-10.7 3.8-0.2-0.2 4.1-2.5 9.5-5.2 5.3-2.6 12.4-6.2 15.7-7.8 3.3-1.7 6.9-3.9 8-5 1.2-1.1-2.6 0.2-9.5 3.3-6.3 2.8-14.4 6.2-18 7.6-3.8 1.5-10.2 2.9-15.5 3.4-4.9 0.5-12.4 1.1-24 1.9l10.5-2.4c5.8-1.3 14.1-3.3 18.5-4.4 4.4-1.2 12.5-3.7 18-5.6 5.5-1.9 12.7-4.6 16-6.1 3.3-1.5 8.7-3.7 12-4.9 3.3-1.2 8.7-4.1 12-6.3 3.3-2.2 12.5-8 20.5-12.8 8-4.8 17.2-10.7 20.5-13 3.3-2.4 8.5-6.8 11.4-9.9 3-3.1 5.1-5.6 4.5-5.6-0.5 0.1-0.3-0.6 0.5-1.5 0.7-0.8 1.4-1.5 1.6-1.5zm-196.5 73.1c5.1 0 6.9 0.3 5.5 0.9-1.1 0.5-3.6 0.9-5.5 0.9-1.9 0-4.4-0.4-5.5-0.9-1.3-0.6 0.4-0.9 5.5-0.9zm14.5 1.1c1.7-0.1 1.7 0 0.5 0.8-0.8 0.5-3.5 0.9-10.5 0.7l4-0.7c2.2-0.4 4.9-0.8 6-0.8zm-69.2 137.8c0.1 0 2.1 0.6 4.5 1.5 2.3 0.8 4.8 1.2 5.5 0.8 0.6-0.4 3.7-0.6 6.7-0.4 3 0.1 6.3 0.9 7.3 1.7 1 0.8 1.9 1 2.2 0.4 0.3-0.5 3.1-1 6.3-1 3.3 0 6.2 0.5 6.9 1.2 1 1.1 2.2 1 6-0.4 2.7-0.9 7.3-1.8 10.3-2 3.3-0.2 5.4 0.1 5.3 0.7-0.1 0.6 1.6 0.8 4 0.6 2.7-0.2 4.7 0.2 5.7 1.1 0.8 0.8 5.3 3 9.9 4.9 7.9 3.2 8.5 3.7 10.3 7.9 1.1 2.5 2.3 5.7 2.6 7.2 0.6 2.2 1 2.5 2 1.5q1.3-1.2 2.2-0.2c0.5 0.5 1.6 3.7 2.4 7 1 3.7 1.6 10.3 1.6 17 0 7.4-0.6 13.6-1.9 19-1.1 4.4-2.4 13-2.9 19-0.6 6-1.6 13.2-2.3 16-0.6 2.7-1.7 5.5-2.3 6-0.7 0.5-1.6 2.5-2.1 4.4-0.9 3.1-1.5 3.6-6 4.6-2.7 0.6-6 1.7-7.2 2.3-1.3 0.7-3.8 1.2-5.5 1.1-1.8 0-5.1 0.5-7.3 1.1-2.2 0.6-5.1 1.4-6.5 1.7-1.9 0.4-2.9-0.1-4.2-2.1-1-1.4-4-3.7-6.8-5.1-2.7-1.4-5.1-2.3-5.2-2-0.2 0.3-1.6-0.9-3.3-2.5-1.8-1.8-4-3-5.5-3-1.4 0-4.1 1.3-6 2.8-1.9 1.5-3.7 2.6-4 2.5-0.3 0-1.3 0.3-2.2 0.8-1.3 0.6-1.9 0.5-2.3-0.6-0.4-1.2-1.2-1.1-4.2 1-2.1 1.4-4.6 2.5-5.5 2.5-1 0-2 0.5-2.3 1-0.3 0.5-2.4 1-4.7 1-4 0-4.2-0.1-2.3-1.4 2-1.4 2-1.5-0.5-2.4-2.1-0.8-2.6-0.6-3 1-0.5 1.8-0.7 1.7-3.8-0.9-1.8-1.5-3.3-3.3-3.3-3.8 0-0.5 1-0.1 2.1 1 1.9 1.8 2.1 1.8 2 0.2 0-0.9-0.7-1.7-1.5-1.7-0.8 0-1.7 0.1-1.9 0.2-0.2 0.2-1.4-0.6-2.6-1.7-1.2-1.1-3.5-4.1-5.1-6.8-1.6-2.6-3.3-4.7-3.9-4.7-0.5 0-1 0.9-1 2 0 1.1-0.4 2-1 2-0.5 0-1.3-2.1-1.7-4.8-0.6-4.4-0.7-4.5-1.3-1.7-0.6 2.9-0.6 2.9-1.3-1.3-0.4-2.3-1.1-4-1.7-3.7-0.5 0.3-2.4-3.9-4.2-9.3-2.1-6.7-4-10.5-5.9-12.2-1.9-1.8-2.8-3.6-3-6.5-0.1-2.4 0.5-5.4 1.6-7.5 1-1.9 2.3-3.8 2.9-4.2 0.6-0.4 1.8-0.5 2.6-0.3 1.2 0.4 1.8-1.2 3-7.7 1-6 1.6-7.6 2-5.8 0.6 2.3 0.7 2.3 1.3-1 0.4-1.9 0.8-5.3 0.9-7.5 0.1-3.8 0.1-3.8 0.7 1 0.6 4.9 0.6 4.9 1.9-4.5 1-6.6 1.9-9.9 3-10.7 1-0.7 4.2-2.6 7.2-4.2 3-1.7 5.8-2.9 6.3-2.6 0.4 0.3 1.7-0.4 3-1.5 1.2-1.1 3.2-2 4.5-2 1.8 0 2.2-0.5 2.2-3 0-1.6 0.1-3 0.3-3zm-367.8 3.2l-2 0.5c-1.1 0.3-2.7 1.1-3.5 1.9q-1.5 1.3-5.4 0.7c-2.1-0.3-3.5-0.8-3.1-1.2 0.4-0.3 2.8-0.9 5.3-1.2 2.6-0.4 5.6-0.6 8.7-0.7zm674.8 106c9.2-0.1 16.9 0.1 17.1 0.5 0.2 0.5-5.5 0.7-12.7 0.5-7.3-0.1-15-0.4-17.2-0.5-2.2-0.2 3.5-0.4 12.8-0.5zm-689 21.9c1.2 0.7 3.4 2 5 3 2.1 1.5 2.5 2.3 1.8 3.6-0.5 1-2.1 3-3.5 4.5-2 2.1-3.4 2.7-5.8 2.5-3.1-0.2-3.3-0.4-3.6-4.7-0.2-3.4 0.2-5.2 1.8-7.2 1.8-2.4 2.4-2.6 4.3-1.7z"/>
		<path id="Path 10" class="s3" d="m16.1 795.8c-1.2 0.5-3.2 2.4-4.2 4.3-1 1.9-1.9 4.3-1.9 5.4-0.1 1.1 0.5 2.6 1.2 3.2 0.9 0.9 5.1 1.3 13.5 1.3h12.3c0.5 5.8 0.7 23.9 0.8 44 0.1 28.3 0.4 36.8 1.4 37.8 0.7 0.7 2.4 1.3 3.8 1.2 1.4 0 4.2-0.6 6.3-1.3l3.7-1.2v-79c22.5-1.2 26.7-1.8 27.3-2.7 0.4-0.7 0.6-3.5 0.3-6.3-0.2-2.7-1-5.3-1.8-5.7-0.7-0.4-9.2-0.8-18.8-0.8-9.6 0-22.9-0.2-29.5-0.5-6.6-0.2-13.1-0.1-14.4 0.3zm246.7 0.9c-1 0.2-2 1.4-2.3 2.6-0.4 1.2-0.5 3.8-0.3 5.7 0.3 3 0.7 3.6 3.3 4.1 1.6 0.4 7.2 0.7 12.3 0.8l9.2 0.1c0 72.8 0.2 81.7 1.2 82.2 0.7 0.4 3.7 0.8 6.6 0.8 3.1 0 5.5-0.5 6-1.2 0.4-0.7 0.9-19.5 1.2-41.8l0.5-40.5c19.4-0.4 25.4-0.9 25.8-1.3 0.5-0.4 0.6-3.3 0.3-6.4l-0.6-5.8c-47.7 0.2-62.3 0.4-63.2 0.7zm419.6 0c-1.1 0.2-2.3 1.4-2.7 2.6-0.3 1.2-0.7 21.1-0.8 44.2-0.1 23.1 0.2 43.2 0.7 44.8 0.5 1.5 1.6 3 2.4 3.3 0.8 0.3 12.3 0.5 25.5 0.5 13.2 0 24.8-0.4 25.8-0.8 1-0.4 2.2-2.1 2.8-3.8 0.5-1.6 0.9-3.8 0.9-4.7 0-1.1-1.4-2.4-3.5-3.3-2.6-1.1-7.6-1.5-20.3-1.5-9.2 0-17.3-0.4-18-0.8-0.8-0.5-1.5-4.6-2-12.5l-0.7-11.7c7-0.2 14.9-0.5 22-0.9l13-0.6c0.5-11 0.1-13.2-0.7-13.7-0.7-0.4-7.4-0.8-14.8-0.8-7.4 0-14.5-0.2-15.8-0.5-1.9-0.4-2.3-1.4-2.8-6.2-0.4-3.2-0.3-8.7 0.2-12.3l0.9-6.5c35-0.9 40.7-1.4 41.7-2.3 0.7-0.7 1.5-3.7 1.7-6.5 0.3-4.8 0.2-5.3-2-5.9-1.3-0.4-13.4-0.7-26.9-0.7-13.5 0.1-25.4 0.4-26.6 0.6zm123.1 0.7l-4 1.2c0.5 70.4 0.9 91.7 1.1 92.7 0.3 1.4 1.4 1.7 7.1 1.5l6.8-0.3c0.8-51.1 1.1-66.2 1.2-66.5 0.1-0.3 1 0.2 1.9 1 0.9 0.8 2.7 3.5 3.9 6 1.2 2.5 5.4 8 9.4 12.3 3.9 4.2 10.3 12.1 14.3 17.5 4 5.3 11 14.3 15.7 20 8.1 9.7 8.8 10.3 12.3 10.2 2.1 0 4.9-0.5 6.3-1l2.5-1c0-74.8-0.4-87.5-1.3-90.2-0.7-2.2-1.9-3.9-2.9-4.1-1-0.1-3.5 0.1-5.5 0.5-2.1 0.4-4.3 1.2-4.8 1.8-0.6 0.7-1.2 13.8-1.5 33-0.4 22.5-0.8 31.7-1.6 31.2-0.6-0.4-5.7-7-11.5-14.7-5.7-7.7-13.3-17.4-16.8-21.5-3.5-4.1-10.4-12.8-15.2-19.2-6.9-9.1-9.4-11.8-11.2-11.7-1.2 0-4 0.6-6.2 1.3zm-643.5 12.2c-3 0.8-7.8 2.7-10.5 4.2-2.8 1.5-7.7 5.4-11.1 8.7-3.4 3.3-7.1 8-8.4 10.5-1.2 2.5-2.9 6.8-3.7 9.5-0.9 2.8-1.5 7.5-1.5 10.5 0 3 1 8.4 2.2 12 1.2 3.6 3.8 8.7 5.8 11.4 2.1 2.8 6.4 7 9.7 9.4 3.5 2.5 8.7 5.2 12.5 6.3 4.2 1.3 9.3 1.9 14.5 1.9 5.9 0 9.8-0.7 15-2.5 3.8-1.4 9.2-4.3 12-6.4 2.7-2.2 6.4-5.7 8.1-7.8 1.6-2.1 4-5.4 5.2-7.3 1.2-1.9 2.6-6.2 3.2-9.5 0.8-4.4 0.8-7.9 0-13-0.6-3.8-2.5-9.9-4.2-13.5-1.9-3.9-5.4-8.7-8.7-12.1-3.1-3-8.1-6.7-11.1-8.2-3-1.5-8-3.4-11-4.2-3-0.8-7.1-1.5-9-1.4-1.9 0-6 0.7-9 1.5z"/>
		<path id="Path 11" class="s7" d="m450.5 26.8c-2.8 1.5-7.5 4.6-10.5 6.7-3 2.2-8.8 6.2-12.9 9-4.1 2.7-8.2 6.1-9.2 7.5-1.7 2.3-1.8 3.6-0.8 15.5 0.5 7.2 0.8 23.2 0.7 35.8-0.2 12.5-0.6 22.7-1.1 22.7-0.4 0-0.6 0.8-0.5 1.8 0.1 0.9-0.2 3-0.6 4.7-0.7 3-0.6 3.1 15.6 13.1 9 5.6 18.7 11.3 21.6 12.8 3.2 1.6 5.9 2.3 6.9 1.9 1-0.4 7-3.7 13.3-7.3 6.3-3.6 15.8-9.4 21-12.7 5.2-3.4 8.9-6.3 8.1-6.5-1.2-0.3-1.2-4.3-0.2-27.8 0.6-15.1 1.3-32.1 1.6-37.8 0.3-5.6 0.3-11.2 0-12.5-0.4-1.5-6-5.8-18.3-13.8-9.7-6.4-19.6-12.6-22-13.8-2.3-1.1-5-2.1-6-2.1-0.9 0-4 1.3-6.7 2.8z"/>
		<path id="Path 12" class="s8" d="m401.5 58.4c-7.7 3.9-18.1 9.4-23 12.3-4.9 2.8-11.5 7.1-14.6 9.5-3.1 2.3-6.7 5.6-8 7.3-2.2 3-2.2 3.1-0.6 8.3 0.9 2.8 3 6.7 4.6 8.4 1.8 2.1 10.1 7.1 22.2 13.5 11.8 6.2 21.7 10.7 25.2 11.5 4.9 1.1 5.9 1.1 7.2-0.2 0.8-0.8 2-5.1 2.6-9.5 0.8-5.6 0.9-16.1 0.4-34.5-0.4-14.6-0.8-28.2-0.9-30.3 0-2-0.3-3.7-0.6-3.6-0.3 0.1-6.8 3.3-14.5 7.3zm101.8 8c-0.2 7.2-0.8 24.4-1.4 38.1-0.7 13.8-1 25.6-0.8 26.2 0.3 0.9 3.8-0.3 10.9-3.6 5.8-2.7 15.9-7.9 22.5-11.6 6.6-3.7 13.2-7.9 14.8-9.3 1.5-1.5 3.2-4.3 3.8-6.2 0.8-2.6 0.8-5.1 0-9.5-0.7-3.3-2-7.3-3-9-0.9-1.7-4.4-4.8-7.7-7-3.2-2.1-10.6-6.6-16.4-9.8-5.8-3.2-12.5-6.8-15-8-2.5-1.1-5.2-2.4-6-2.8-1.3-0.5-1.5 1.2-1.7 12.5z"/>
		<path id="Path 13" class="s4" d="m720.1 411.8c0 2.3-0.4 5-0.7 5.9-0.3 1 0.1 0.8 0.8-0.5 0.7-1.3 1.7-1.9 2.3-1.5 0.5 0.4 0.4 0.1-0.2-0.7-0.6-0.8-1.3-2.9-1.6-4.5-0.3-2.4-0.4-2.2-0.6 1.2zm80.3 398.3c0 5.8 0.1 8 0.3 5 0.2-3 0.2-7.8 0-10.5-0.2-2.8-0.3-0.3-0.3 5.5zm67 6.5c0 5.5 0.1 7.5 0.3 4.5 0.2-3 0.2-7.5 0-10-0.2-2.5-0.3 0-0.3 5.5zm17.1 32.5c0 22.8 0.1 32 0.2 20.5 0.2-11.5 0.2-30.2 0-41.5-0.1-11.3-0.2-1.8-0.2 21zm-584-1c0 21.2 0.1 29.7 0.2 19 0.2-10.7 0.2-28 0-38.5-0.1-10.5-0.2-1.7-0.2 19.5zm-246.9-35.7c-0.2 0.7-0.3 15.6-0.2 33.2l0.1 32 0.5-65.5 8.5-0.7c-7-0.2-8.7 0.2-8.9 1zm655.4-0.6c3.6 0.2 9 0.2 12 0 3-0.2 0.1-0.3-6.5-0.3-6.6 0-9.1 0.1-5.5 0.3zm108.4 47.3c0 12.4 0.2 17.3 0.3 11 0.2-6.3 0.2-16.5 0-22.5-0.1-6-0.3-0.9-0.3 11.5z"/>
		<path id="Path 14" class="s5" d="m777.4 160c0 10.2 0.2 14.2 0.3 9 0.2-5.2 0.2-13.6 0-18.5-0.1-4.9-0.3-0.7-0.3 9.5zm-654 2c0 9.1 0.2 12.7 0.3 8 0.2-4.7 0.2-12.1 0-16.5-0.1-4.4-0.3-0.6-0.3 8.5zm599 204c0 10.7 0.2 15.2 0.3 10 0.2-5.2 0.2-14 0-19.5-0.1-5.5-0.3-1.2-0.3 9.5zm-274.4 278.7c4.1 0.2 10.6 0.2 14.5 0 3.9-0.1 0.5-0.3-7.5-0.3-8 0-11.1 0.2-7 0.3zm-402.5 151c4.4 0.2 11.1 0.2 15 0 3.8-0.1 0.3-0.3-8-0.3-8.3 0-11.4 0.2-7 0.3zm243 0c6.6 0.2 16.9 0.2 23 0 6.1-0.1 0.6-0.3-12-0.3-12.6 0-17.6 0.2-11 0.3zm411.5 0c4.7 0.2 12.8 0.2 18 0 5.2-0.1 1.4-0.3-8.5-0.3-9.9 0-14.2 0.2-9.5 0.3zm-21.6 41.8c0 18.1 0.2 25.8 0.3 17 0.2-8.8 0.2-23.6 0-33-0.1-9.4-0.3-2.1-0.3 16zm-371.9-27.8c3.3 0.2 8.9 0.2 12.5 0 3.6-0.2 0.9-0.3-6-0.3-6.9 0-9.8 0.1-6.5 0.3zm-22.1 40.8c0 18.1 0.2 25.8 0.3 17 0.2-8.8 0.2-23.6 0-33-0.1-9.4-0.3-2.1-0.3 16zm408.9-26c0 3.9 0.2 5.2 0.4 3 0.2-2.2 0.2-5.4 0-7-0.2-1.6-0.4 0.1-0.4 4zm-655.9 25c0 12.6 0.2 17.6 0.3 11 0.2-6.6 0.2-17 0-23-0.1-6-0.3-0.6-0.3 12zm764 9c0 16.5 0.2 23.5 0.3 15.5 0.2-8 0.2-21.5 0-30-0.1-8.5-0.3-2-0.3 14.5zm-99.4-21.8c3 0.2 8.2 0.2 11.5 0 3.3-0.2 0.8-0.3-5.5-0.3-6.3 0-9 0.1-6 0.3zm24.7 1.1c0.6 0.4 1.3 3 1.5 5.7l0.4 5c0.4-10.6 0.1-11.5-1.4-11.5q-1.7 0-0.5 0.8zm-10.7 14.2l-11.5 0.6c18 0.3 22.7 0 23-0.6 0.2-0.5 0.3-0.9 0.2-0.8-0.1 0.1-5.4 0.5-11.7 0.8zm-662.7 31.5c0 3.9 0.2 5.2 0.4 3 0.2-2.2 0.2-5.4 0-7-0.2-1.6-0.4 0.1-0.4 4zm650.2-5.8c4.4 0.2 11.1 0.2 15 0 3.9-0.1 0.2-0.3-8-0.3-8.3 0-11.4 0.2-7 0.3zm-13.5 15c3 0.2 7.5 0.2 10 0 2.5-0.2 0-0.3-5.5-0.3-5.5 0-7.5 0.1-4.5 0.3zm23 0c3 0.2 8.2 0.2 11.5 0 3.3-0.2 0.8-0.3-5.5-0.3-6.3 0-9 0.1-6 0.3z"/>
		<path id="Path 15" class="s1" d="m282 333.5c-3.6 0.7-9.2 2.6-12.5 4.2-3.3 1.7-8.5 5.3-11.5 8-3 2.8-6.9 7.7-8.7 10.9-1.7 3.2-3.9 8.8-4.7 12.4-0.9 3.6-1.6 9.4-1.6 13 0 3.6 0.6 8.8 1.4 11.5 0.7 2.7 2.3 7.1 3.4 9.8 1.2 2.6 4.6 7.1 7.4 10 3.1 3.2 8.2 6.9 12.3 8.9 3.9 2 9.5 4.3 12.5 5.2 3 0.9 7.3 1.6 9.5 1.6 2.2 0 7.1-0.9 11-2 3.9-1.1 9.4-3.5 12.4-5.3 2.9-1.7 7.6-5.7 10.3-8.7 2.8-3 6.9-9.3 9.2-13.9 4-8.2 4.1-8.7 4.1-18.5 0-9.9-0.1-10.3-4.5-19.6-2.5-5.2-6.3-11.5-8.5-13.9-2.2-2.4-6.7-5.8-10-7.6-3.3-1.8-8.5-4-11.5-4.8-3-0.9-7.3-1.7-9.5-2-2.2-0.3-6.9 0.1-10.5 0.8zm317.5 0.9c-2.2 0.6-6.9 2.8-10.5 4.8-3.6 2-8.8 6-11.6 9-3.5 3.7-6 7.8-8.4 13.3-2.6 6.4-3.4 9.8-3.8 17-0.3 6.3 0 10.8 1.1 15 0.8 3.3 2.8 8.2 4.3 11 1.6 2.7 5.1 7.2 7.9 10 3.4 3.3 7.8 6.2 13.5 8.9 4.7 2.1 11 4.3 14 4.9 4 0.8 7.3 0.7 12-0.1 3.6-0.6 9.4-2.6 13-4.4 4.1-1.9 9-5.6 13.2-9.7 4.4-4.5 7.6-8.7 9.7-13.1 1.7-3.6 3.6-9.9 4.2-14 1-6.3 0.9-8.7-0.5-15-0.9-4.1-3.4-10.6-5.4-14.5-2-3.9-5.7-9-8.2-11.5-2.5-2.5-7.4-6-11-7.7-3.6-1.7-8.5-3.6-11-4.2-2.5-0.6-7.6-1-11.5-1-3.9 0-8.8 0.6-11 1.3zm-225 149.4c-1.1 0.2-2.5 0.9-3 1.5-0.6 0.6-1 3.6-1 6.7 0.1 3.9 1.1 7.5 3.3 12.2 1.8 3.8 5.2 8.9 7.6 11.5 2.4 2.7 7 6.2 10.2 8 3.3 1.7 9 4 12.9 5.2 3.9 1.1 9.5 2.1 12.5 2.1 3 0 8.2-0.7 11.5-1.5 3.4-0.9 8.9-3.5 12.8-6 3.7-2.5 7.7-4.7 8.9-5 1.8-0.4 3.3 0.4 6.3 3.6 2.2 2.3 6 5.1 8.5 6.3 3.7 1.7 6.5 2 15.5 2 8.9 0 12.3-0.4 18-2.3 3.9-1.3 9-3.4 11.5-4.6 2.5-1.3 6.6-4.5 9.1-7.1 2.5-2.7 5.7-7.2 7.1-9.9 1.4-2.8 3.3-8.5 4.2-12.8 0.9-4.2 1.6-8.1 1.6-8.7 0-0.6-3.2-1-7.5-1h-7.5c0.3 10.3-0.2 13.6-1.3 15.5-0.8 1.6-3.3 4.7-5.4 6.7-2.1 2-7.2 5.3-11.3 7.2-4.1 1.9-9.5 3.9-12 4.4-3 0.7-5.7 0.7-8 0-1.9-0.6-6-2.3-9-3.8-3-1.5-7.1-4.5-9-6.7-2.5-2.9-3.9-3.8-5-3.2-0.8 0.4-1.7 0.6-2 0.4-0.3-0.2-2.7 0.2-5.5 0.9-2.7 0.7-6.8 2.5-9 4-2.2 1.5-6.9 3.7-10.5 4.9-4.4 1.5-8.8 2.1-13.5 2.1-4.8-0.1-8.7-0.8-12.5-2.3-3-1.2-7.3-3.4-9.5-4.8-2.2-1.3-5.1-4.1-6.5-6.1-1.9-2.7-2.6-5.3-3-10.8-0.3-4-0.7-7.5-1-7.8-0.3-0.3-1.9-0.7-3.5-0.9-1.6-0.2-3.9-0.2-5 0.1zm32.3 332.4c0.1 8.4 0.5 15.9 0.7 16.6 0.4 0.9 6 1.1 24.3 1l23.7-0.3c0.5-28.4 0.4-29.5-1.2-28.9-1 0.3-3 0.7-4.5 1-1.6 0.2-2.6 0.9-2.3 1.4 0.3 0.5-1.2 1.3-3.2 1.6-2.1 0.3-5.2 1.7-6.8 3-2.5 2.1-3.7 2.5-7 2.1-2.5-0.4-4.7-1.5-6-3-1.1-1.3-3.1-2.7-4.5-3.1-1.4-0.4-4.2-1.2-6.3-1.9-2.1-0.7-3.6-1.7-3.5-2.3 0.2-0.7-0.5-1.5-1.5-1.8-0.9-0.3-1.8-0.6-1.9-0.6-0.2 0-0.2 6.9 0 15.2zm-18.8-3.7c-0.2 2.8-0.4 6.4-0.3 8 0.1 1.6-0.3 5-0.8 7.5-0.6 2.5-2.4 9-4.1 14.5-3 9.5-3.1 10.3-1.9 16.5 0.7 3.6 2.3 9.2 3.6 12.5 1.4 3.3 2.5 7.1 2.5 8.5 0.1 1.4 0.6 3.5 1.3 4.7 1 1.7 1.1-3.7 0.9-27-0.1-16.1-0.3-33.9-0.5-39.7-0.2-6.5-0.4-8.6-0.7-5.5zm86.1 29.5c0 20 0.3 32.9 0.9 32 0.4-0.8 1.7-4.9 2.8-9 1.8-6.4 2-9.8 1.7-23.5-0.2-8.8-0.7-17.8-1-20-0.3-2.2-1-4.5-1.5-5-0.4-0.5-1.3-2.6-1.8-4.5-0.7-2.5-1 5.9-1.1 30zm-314.1-16.1c-1.9 1-5 3.6-6.9 5.7-1.9 2.2-4.3 5.9-5.4 8.4-1.1 2.5-2.2 7-2.5 10-0.3 3.5 0.1 7.6 1.2 11.3 1.2 4.3 2.8 6.9 6.4 10.5 3.1 3.2 6.4 5.4 9.7 6.5 2.8 1 7.5 1.7 10.5 1.7 4 0 6.9-0.7 10.9-2.7 3-1.6 6.6-4.2 7.9-5.8 1.4-1.6 3.4-5 4.6-7.5 1.4-3.2 2-6.5 1.9-11.5 0-5.1-0.6-8.4-2.4-12.4-1.4-3.1-4.2-7-6.5-9-2.2-2-6.5-4.4-9.5-5.4-3-0.9-7.9-1.7-10.9-1.7-3.3 0.1-6.9 0.8-9 1.9zm247 44.6c0 19.1 0.1 20.5 1.8 19.8 0.9-0.3 4.5-2.2 7.9-4.2 4.1-2.4 6.6-4.5 7.3-6.3 0.5-1.6 2.2-4.4 3.8-6.3 1.5-1.9 3.6-3.5 4.7-3.5 1.1-0.1 3.1 1.4 4.6 3.2 1.6 2.1 4.3 3.8 7.3 4.8 2.5 0.8 4.6 2.1 4.6 2.8 0 0.6 1.4 2.1 3 3.2 1.7 1.1 3.2 2 3.5 2 0.3 0 0.5-8.1 0.5-18v-18h-49z"/>
		<path id="Path 16" class="s2" d="m452.3 502.4c-2.1 1.1-4.9 1.9-6.2 1.9-1.4 0-2.6 0.5-2.7 1.2-0.1 1 0.9 1 5-0.1 2.8-0.7 5.3-1.1 5.6-0.9 0.3 0.3 1.3-0.1 2.2-0.8 1.1-0.7 1.4-1.6 0.9-2.2-0.6-0.7-2.2-0.3-4.8 0.9z"/>
		<path id="Path 17" class="s3" d="m396.2 796.1c-1.8 0.5-3.8 1.6-4.5 2.5-0.9 1.3-1.3 13.2-1.5 43.8-0.2 23.2-0.1 43.9 0.2 46.1 0.6 3.8 0.8 4 4.9 4.8 2.3 0.4 5.7 0.5 7.5 0.2l3.2-0.5c0-31.8 0.2-41.7 0.5-42.5 0.4-1.3 4-1.5 24.3-1.5 13 0 24.2 0.4 24.9 0.8 0.9 0.5 1.3 6.6 1.5 21.7l0.3 21h14c1.2-17 1.4-38 1.2-57.5-0.2-19.5-0.6-36.3-1-37.3-0.5-1.3-1.8-1.7-5.2-1.7-2.5 0-5.6 0.5-7 1l-2.5 1v35c-3.9 1.6-14.7 2-27 2-16.6 0-22.2-0.3-22.6-1.3-0.4-0.6-1.1-9.5-1.5-19.7-0.5-10.2-0.8-18.6-0.9-18.8 0-0.1-1.2-0.2-2.7-0.1-1.6 0-4.3 0.5-6.1 1z"/>
		<path id="Path 18" class="s8" d="m458.5 457.7c1.6 0.2 4.8 0.2 7 0 2.2-0.2 0.9-0.4-3-0.4-3.9 0-5.6 0.2-4 0.4z"/>
		<path id="Path 19" class="s4" d="m426.2 459.7c-1.7 1.5-2.4 3.1-2.3 5.3 0 1.6 1 5.1 2.2 7.8 1.1 2.6 5.4 10.7 9.5 18 6 10.8 7.7 13 8.9 12.2 0.8-0.5 2.5-0.8 3.8-0.5 1.2 0.3 3.9-0.3 5.9-1.3 2.1-0.9 6.3-4.6 9.3-8.2 3-3.6 7-9.4 8.9-13 1.8-3.6 3.6-8.7 4.1-11.5 0.4-3.2 0.3-5.8-0.4-7.2-0.7-1.5-2.3-2.5-4.3-2.8-1.8-0.2-12.2-0.6-23.2-0.7-19.2-0.3-19.9-0.2-22.4 1.9zm47.2 377.3c0 13.5 0.2 18.9 0.3 12 0.2-6.9 0.2-17.9 0-24.5-0.1-6.6-0.3-1-0.3 12.5zm-84.1 34c0 4.1 0.2 5.9 0.4 4 0.2-1.9 0.2-5.3 0-7.5-0.2-2.2-0.4-0.6-0.4 3.5zm17 9.5c0 4.4 0.2 6 0.4 3.5 0.2-2.5 0.2-6.1 0-8-0.2-1.9-0.4 0.1-0.4 4.5z"/>
		<path id="Path 20" class="s5" d="m456.4 818c0 8.5 0.2 11.9 0.3 7.5 0.2-4.4 0.2-11.4 0-15.5-0.1-4.1-0.3-0.5-0.3 8zm-36.9 16.7c6.6 0.2 17 0.2 23 0 6.1-0.1 0.6-0.3-12-0.3-12.6 0-17.6 0.2-11 0.3zm-1 15c6.6 0.2 17.6 0.2 24.5 0 6.9-0.1 1.5-0.3-12-0.3-13.5 0-19.1 0.2-12.5 0.3zm37.9 17.8c0 9.9 0.2 13.7 0.3 8.5 0.2-5.2 0.2-13.3 0-18-0.1-4.7-0.3-0.4-0.3 9.5zm-50-5.5c0 6.3 0.1 8.8 0.3 5.5 0.2-3.3 0.2-8.5 0-11.5-0.2-3-0.3-0.3-0.3 6z"/>
		<path id="Path 21" fill-rule="evenodd" class="s0" d="m277.5 351.1c0.6 0-0.1 0.6-4 2.9l3-0.7c1.6-0.5 7.5-0.8 13-0.8 7.8 0 10.8 0.4 13.5 1.9 1.9 1 5.7 3.9 8.3 6.5 2.6 2.5 5.1 4.4 5.4 4.1 0.4-0.3 0.8 0.2 1 1 0.4 1.3 0.3 1.3-0.7 0-1-1.3-1.1-1.3-0.6 0.2 0.3 1 0.6 2.4 0.6 3q0 1.3 0.9-0.2c0.7-1.1 1.1-0.3 1.6 3 0.3 2.5 0.2 7.2-0.3 10.5-0.5 3.3-1.9 7.8-2.9 10-1.1 2.2-4 5.7-6.4 7.9-2.4 2.1-6.9 5-9.9 6.4-4.2 2-7.6 2.7-22.5 3.4l-3.3-3.4c-1.9-1.8-4.6-5.6-6.2-8.3-1.5-2.8-3.7-7.7-4.8-11-1.1-3.3-2.3-8.9-2.7-12.5-0.6-6-0.5-6.8 1.9-10.3 1.4-2 2.6-4 2.6-4.5 0-0.4 1.1-2.1 2.4-3.7 1.4-1.6 3.9-3.5 5.8-4.2 1.8-0.6 3.7-1.2 4.3-1.2zm333.9 2.9c3.4 0 6.8 0.8 10.1 2.4 2.8 1.3 6.5 4.2 8.4 6.3 1.9 2.1 4.2 5.6 5.2 7.8 1.4 3.2 1.8 3.6 2.2 2 0.3-1.1 0.6 1.6 0.9 14l1.3-4c1.1-3.2 1.4-3.5 1.4-1.5 0 1.4-1.1 5.2-2.4 8.5-1.4 3.3-2.5 6.1-2.5 6.2 0 0.2 0.6 0 1.2-0.5q1.3-0.7 0.5 0.5c-0.4 0.7-1 1.1-1.4 0.8-0.5-0.2-1.7 0.5-2.8 1.7-1.1 1.1-4 3.4-6.5 5-2.5 1.5-4 2.8-3.5 2.8 0.5 0 3.7-1.8 13-8.1l-4 3.6c-2.2 2-6.2 4.4-9 5.4-2.7 1-7.2 2.1-10 2.5-3.5 0.4-4.4 0.3-3-0.4 1.5-0.7 0.9-0.8-2-0.4-2.2 0.3-6 0.1-8.5-0.6-2.5-0.6-6-2.1-7.8-3.3-1.8-1.2-4.3-4-5.5-6.2-1.1-2.2-2-4.9-1.9-6 0.2-1.2 0-1.6-0.5-0.8-0.4 0.6-0.6-3-0.4-8 0.2-5.7 1-11.1 2.2-14.2 1-2.8 2.5-5.9 4.9-9l-0.6 2q-0.7 2 3.7-2.3c2.9-2.8 5.6-4.4 7.9-4.7 1.9-0.3 3.7-0.8 3.9-1 0.2-0.3 2.7-0.5 5.5-0.5zm-350.6 32.5l4.2 9c2.2 4.9 4.9 9.9 5.8 11 1.2 1.4 0.7 1.2-1.8-0.6-1.9-1.4-4.3-4.1-5.2-6-1-1.9-2-5.7-2.4-8.4z"/>
		<path id="Path 22" class="s2" d="m604 346.2c-0.8 0.7-1.3 1.7-1.2 2.3 0.1 0.5-1 1.3-2.5 1.7-1.6 0.3-4.8 2.1-7.3 4-2.5 1.9-5.9 5.6-7.5 8.3-2.7 4.3-3 5.8-3.3 14.4-0.2 6.4 0.1 11 1.1 13.6 1.3 3.8 1.3 3.6 0.9-5.5-0.3-7.9 0-10.4 1.7-15 1.1-3 2.7-6.4 3.6-7.5l1.5-2c-1.1 3.3 0.2 2.6 3.1-0.3 2.5-2.4 5.7-4.5 7.4-4.8 1.6-0.3 5.5-0.8 8.5-1.1 4.2-0.4 6.6-0.1 10 1.4 2.5 1.1 6.2 3.5 8.3 5.4 2.1 1.9 4.9 5.6 6.1 8.2 1.7 3.6 2.4 4.3 2.8 3 0.3-1 0.7 1.8 0.8 6.2l0.2 8c2.2-6.8 2.7-7.3 2.7-5.7 0.1 1.2-0.9 4.8-2.1 8-1.2 3.1-3.4 7-4.8 8.6-1.4 1.6-4.5 4.2-7 5.8-2.5 1.6-4 2.8-3.5 2.8 0.5 0 3.2-1.5 6-3.4 2.8-1.9 6.7-5.9 8.7-9 2.1-3.1 3.8-6 3.8-6.6 0-0.5 0.3-0.8 0.7-0.6 0.5 0.3 1.2-2.1 1.7-5.2 0.5-3.1 0.9-7.1 0.9-8.7 0-1.8-1.3-4.9-3.1-7.5-1.7-2.5-4.8-6.1-6.9-8.2-2.1-2-6.5-5.5-9.8-7.7-5.7-3.9-6.4-4.1-13-4.1-4.1 0-7.7 0.5-8.5 1.2zm-322 4.1c-2.5 0.7-5.3 1.9-6.2 2.7-1.6 1.3-1.5 1.3 1 0.5 1.5-0.6 7.2-1 12.7-1 8.2 0 10.7 0.4 14 2.2 2.2 1.1 6.1 4.4 8.8 7.2 2.6 2.8 4.7 5.9 4.8 6.9 0 0.9 0.2 1.1 0.5 0.5 0.2-0.7-0.3-2.7-1.1-4.3-0.8-1.6-3.4-5.1-5.7-7.6-2.4-2.6-5.8-5.3-7.5-6-1.8-0.8-6.3-1.6-10-1.9-4.1-0.3-8.6 0-11.3 0.8zm-19.5 6.6c-2.7 1.6-6.4 4.3-8 6.1-2.8 2.9-3 3.6-2.7 9.8 0.2 5 0.9 7.8 2.9 11.2 1.4 2.5 3.9 7 5.5 10 1.6 3 2.6 4.6 2.3 3.5-0.3-1.1-0.9-4-1.1-6.5-0.5-4.2-0.3-4 3.6 4.5 2.2 4.9 5.1 10 6.3 11.2 1.2 1.3 3.1 2.5 4.2 2.8 1.5 0.4 1.2-0.2-1.3-2.7-1.9-1.8-4.7-5.7-6.3-8.5-1.6-2.9-3.8-8.1-4.8-11.5-1.1-3.5-2.3-8.8-2.6-11.8-0.4-3.2-0.2-6.7 0.4-8.2 0.6-1.6 1.5-2.6 2.1-2.3 0.6 0.3 0.9 0.2 0.8-0.2 0-0.5 0.3-1.7 0.7-2.8 0.5-1.1 1.6-3.2 2.6-4.7 1-1.6 1.4-2.8 1.1-2.8-0.4 0-2.9 1.3-5.7 2.9z"/>
	</g>
</svg>