<svg version="1.2" xmlns="http://www.w3.org/2000/svg" viewBox="0 0 766 233" width="766" height="233">
	<title>Flux_Dev_Crea_un_logo_minimalista_y_moderno_para_una_aplicacin_2 (1)</title>
	<style>
		.s0 { fill: #484a51 } 
		.s1 { fill: #f9f9f9 } 
	</style>
	<g id="Background">
		<path id="Path 0" class="s0" d="m0 116.5v116.5h766v-233h-766z"/>
		<path id="Path 1" class="s1" d="m78.7 31.7c-1.3 2.6-3.6 8.4-5.1 12.8-1.5 4.4-3.2 12-3.8 17-1 7.6-0.9 10.5 0.5 18.5 1.1 6.7 2.7 11.7 5.4 16.9 2.6 5 5.8 9.2 9.8 13 3.3 3.1 8.7 6.9 12 8.5 4.6 2.2 7.9 3 14.5 3.4 6.6 0.4 9.8 0.1 14.5-1.4 3.3-1 8.5-3.5 11.5-5.5 3-2 10.2-7.7 16-12.8 5.8-5 12.7-10.3 15.5-11.6 3.2-1.6 6.7-2.5 9.7-2.5 2.7 0 6 0.6 7.5 1.4 1.6 0.7 4 2.7 5.5 4.5 1.6 1.7 3.1 4.6 3.4 6.4 0.3 1.7 0 5.3-0.5 8-0.6 2.6-6 15.4-12 28.5-6 13-11.6 26.2-12.5 29.2-0.9 3-1.6 8.4-1.6 12 0 5.4 0.5 7.6 3.2 12.9 2.3 4.4 4.7 7.6 7.8 9.8 2.5 1.9 6.7 4.1 9.5 4.9 2.7 0.8 8.4 1.4 12.5 1.4 4.1 0 9.5-0.5 12-1.1 2.5-0.5 8.3-2.9 12.9-5.2 6.4-3.1 10.8-6.4 17.4-12.7l9-8.5c-23.1-17.6-23.6-17.9-25-16-0.7 1.1-3.2 4.3-5.6 7.1-2.3 2.8-6.2 6.6-8.7 8.5-2.8 2-6.1 3.5-8.5 3.8q-4 0.5-6.8-1.2c-1.5-0.9-3.4-3.4-4.3-5.4-0.9-2.2-1.4-5.3-1.2-7.3 0.3-1.9 5.5-13.6 11.5-26 6.1-12.4 12.3-25.7 13.9-29.5 2.2-5.6 2.8-8.6 2.8-15 0-6.7-0.4-9-2.8-14-1.5-3.3-3.9-7.3-5.3-9-1.5-1.7-4.5-4.5-6.7-6.3-2.3-1.8-7.2-4.2-11.1-5.4-5.5-1.6-8.4-2-13.5-1.5-4.5 0.5-8.7 1.7-13.5 4.2-4.7 2.3-11.3 7.2-20 15-7.7 6.8-15.5 12.8-19 14.5-3.3 1.7-7.6 3-9.5 3-1.9 0-5.2-0.5-7.3-1-2-0.6-5.4-2.5-7.5-4.3-2-1.9-4.8-5.8-6.2-8.8-1.9-4.4-2.4-7-2.4-13.9q0-8.5 1.8-14c1-3 3.4-8.5 5.2-12.2 2.6-5.2 3.1-7 2.1-7.6-0.6-0.5-6.1-2.9-12.2-5.3-6-2.4-11.2-4.5-11.6-4.7-0.4-0.2-1.8 1.8-3.2 4.5zm346.3 83.3v38h11c0-29.6 0.4-34.8 1.4-37.3 0.9-1.9 2.9-3.9 5-5 2-0.9 5.1-1.7 6.9-1.7 1.7 0 4.3 0.6 5.6 1.3 1.4 0.6 3.4 2.8 4.5 4.7 1.9 3.1 2.1 5.4 2.4 20.7l0.2 17.3h10c0-37.5-0.2-39.4-2.2-44.1-1.4-3.1-3.5-5.8-5.3-7-1.6-1-5.2-2.3-8-2.9-3.5-0.8-6.2-0.8-9-0.1-2.2 0.5-5.7 2.2-7.7 3.6l-3.8 2.5v-28h-11zm-151.8-28.8l0.3 5.3 20.5 0.5v61h11v-61h20v-11h-52.1zm211 0l0.3 5.2c26 0.4 33.5 0.9 33.5 1.3-0.1 0.4-4.4 6.8-9.7 14.2-5.3 7.5-13.4 18.8-18 25.3-7.4 10.5-8.3 12.2-8.3 16.2v4.5h54v-11c-29.5 0-38-0.3-38-0.7 0-0.4 1.7-3 3.7-5.8 2-2.7 10.1-14.1 18-25.2 13.3-18.8 14.3-20.6 14.3-24.8v-4.5h-50.1zm-95.2 7.3v6.5c-5.9 0-6 0.2-6 4.5 0 4.3 0.1 4.5 3 4.5 2.9 0 3 0.1 3.1 5.2 0.1 2.9 0.3 10.9 0.5 17.8 0.3 8.8 0.9 13.2 1.9 14.7 0.8 1.3 3 3.2 4.7 4.3 1.8 1.1 5.1 2 7.3 2 2.2 0 5.6-0.5 7.5-1.1 1.9-0.7 3.9-1.6 4.5-2 0.6-0.6 0.3-2.3-1-4.9-1.4-2.9-2.4-3.9-3.5-3.4-0.8 0.4-2.6 0.9-4 1.1-1.4 0.2-3.4-0.2-4.5-1.1-1.9-1.3-2-2.6-2-16.8v-15.3l13-1v-8l-13.5-0.5v-13h-11zm-46 5.5c-2.5 0.4-6 1.5-7.8 2.4-1.7 0.9-4.7 3.1-6.5 4.9-1.7 1.8-4.1 5-5.2 7.2-1 2.2-2.1 6.9-2.3 10.5-0.2 3.7 0.2 8.4 0.9 11 0.8 2.5 2.5 6.1 3.9 8 1.5 2.1 5.2 4.8 9 6.8 5.4 2.7 7.6 3.2 13 3.2 5.2 0 7.7-0.6 12.5-2.9 3.6-1.8 7.2-4.4 8.9-6.8 1.7-2.1 3.6-5.4 4.4-7.3 0.8-1.9 1.5-6.4 1.5-10q0-6.5-2-11c-1.1-2.5-3.3-6.1-5-8-1.6-1.9-5.2-4.5-7.9-5.6-2.7-1.2-6.7-2.3-8.9-2.6-2.2-0.2-6-0.1-8.5 0.2zm218.5-0.1c-1.7 0.4-4.4 1.5-6 2.3-1.7 0.9-4.5 3.1-6.3 4.9-1.8 1.9-4.2 5.4-5.4 7.9-1.4 3.1-2.1 6.6-2.2 11.5 0 3.8 0.6 8.8 1.3 11 0.8 2.2 3.1 5.7 5 7.9 2 2.1 5.4 4.8 7.6 6 3.3 1.7 5.7 2.1 13.5 2.1 8.7 0 9.9-0.3 14.9-3 2.9-1.7 5.6-3.6 6-4.3 0.3-0.7-0.7-2.6-2.4-4.2l-3-2.9c-5.7 4-9.1 5.2-12.5 5.6-4.5 0.5-6.4 0.2-10.3-1.5-3.6-1.7-5.2-3.2-6.8-6.5-1.1-2.3-1.8-4.8-1.5-5.5 0.5-0.9 5.3-1.2 19.8-1.1l19.3 0.2c-0.1-11-0.7-14-2.4-17.3-1.3-2.5-3.3-5.5-4.5-6.8-1.1-1.2-4-3.2-6.4-4.2-2.3-1.1-6.6-2.2-9.5-2.5-2.8-0.2-6.6-0.1-8.2 0.4zm43.1 1.3c-0.2 0.7-0.4 12.8-0.3 26.8l0.2 25.5 10.5 0.5c0.5-32.9 0.7-34.8 2.6-38 1.2-1.9 3.4-4.1 4.8-4.8 1.4-0.6 4.2-1.2 6.1-1.2 1.9 0 4.8 0.7 6.5 1.5 1.7 0.8 3.6 3 4.5 5 1.1 2.7 1.5 7.6 1.5 20.5v17h11c0-36.5-0.3-40.1-1.8-43.5-1-2.2-3.6-5.3-5.7-7-3.6-2.8-4.4-3-12.6-3-8.3 0-8.9 0.1-12.8 3.2l-4.1 3.3c0-4.7-0.1-6-0.3-6.1-0.1 0-2.3-0.3-4.9-0.5-3.4-0.4-4.8-0.2-5.2 0.8z"/>
		<path id="Path 2" class="s0" d="m561.5 108.8c-2.2 1-4.8 3.1-5.8 4.5-0.9 1.5-1.9 3.8-2.2 5.2l-0.5 2.5 28.5-0.5c-0.5-3.9-1.3-6-2.1-7.2-0.8-1.3-2.4-3-3.6-3.7-1.3-0.8-4.1-1.8-6.3-2.1-2.8-0.4-5.2 0-8 1.3zm-221.5 2.5c-1.8 1.2-4.3 3.5-5.4 5-1.7 2.2-2.1 4.3-2.1 9.7 0 5.4 0.4 7.5 2.1 9.7 1.1 1.5 3.6 3.8 5.5 5.1 2.1 1.4 4.9 2.2 7.2 2.2 2 0 5.4-0.7 7.5-1.5 2-0.8 4.7-3 6-4.8 1.2-1.7 2.6-5 3.2-7.2 0.6-2.7 0.6-5.3-0.1-8-0.6-2.2-1.9-5.1-2.9-6.5-0.9-1.4-3.3-3.3-5.4-4.2-2-1-5.5-1.8-7.9-1.8-2.8 0-5.5 0.8-7.7 2.3z"/>
	</g>
</svg>